<svg version="1.1" id="Layer_1" xmlns="http://www.w3.org/2000/svg" xmlns:xlink="http://www.w3.org/1999/xlink" x="0px" y="0px"
	 width="100%" viewBox="0 0 512 512" enable-background="new 0 0 512 512" xml:space="preserve">
<path fill="#FFFFFF" opacity="1.000000" stroke="none" 
	d="
M0.999993,415.000000 
	C1.000000,277.029449 1.000000,139.058914 1.000000,1.044183 
	C171.600784,1.044183 342.201569,1.044183 512.901184,1.044183 
	C512.901184,171.564301 512.901184,342.128662 512.901184,512.846558 
	C342.333435,512.846558 171.666733,512.846558 1.000000,512.846558 
	C1.000000,491.254211 1.000000,469.592133 1.364732,447.596375 
	C3.678630,456.253448 8.046736,463.741302 14.634963,470.273804 
	C25.457747,481.005035 38.829094,487.042725 52.811001,491.971130 
	C76.184410,500.209900 100.545395,504.157104 125.029503,506.813538 
	C142.866241,508.748779 160.885773,508.999908 178.824051,509.997192 
	C179.982773,510.061615 181.145386,510.059387 182.303360,510.132812 
	C188.489777,510.524963 194.675278,510.931396 200.150543,511.286774 
	C200.150543,504.821716 199.228073,499.055267 200.348999,493.717957 
	C202.464264,483.646088 205.719147,473.810760 208.566406,463.896088 
	C213.371857,447.162659 218.307327,430.466217 223.039032,413.712067 
	C226.774460,400.485657 232.758774,388.940491 243.017212,379.200653 
	C262.348938,360.846344 280.868317,341.636353 299.715576,322.772247 
	C300.807343,321.679504 301.811462,320.499115 303.104309,319.089111 
	C298.406097,317.270691 294.289337,315.456451 290.031403,314.078674 
	C282.807251,311.741089 278.313080,307.061127 275.885040,299.850891 
	C272.539490,289.916016 273.172546,280.033508 277.037598,270.729706 
	C279.262634,265.373657 283.706848,260.898895 287.349335,256.179657 
	C300.463593,239.188858 311.445496,220.955536 319.468903,201.023102 
	C327.003265,182.305710 332.420410,162.879196 333.747406,142.796768 
	C334.916443,125.105080 334.600677,107.291870 330.079498,89.776596 
	C321.668304,57.191200 303.652130,32.091045 273.636017,16.375414 
	C261.400452,9.969208 248.172684,6.370840 234.305099,4.868611 
	C219.605698,3.276274 204.943375,3.082068 190.578796,6.314367 
	C166.793106,11.666588 146.026169,22.447193 129.827835,41.445786 
	C121.370499,51.365166 114.560173,62.228020 110.225792,74.220787 
	C102.440826,95.760956 99.703865,118.089867 101.804352,141.146255 
	C103.230080,156.795959 105.678535,172.171967 111.139496,186.775208 
	C116.659035,201.535065 122.892799,216.150253 130.282837,230.047607 
	C135.721863,240.275955 142.969803,249.714859 150.463745,258.620209 
	C155.872650,265.047852 159.416183,271.456299 161.382538,279.810944 
	C164.196609,291.767303 155.153275,309.316467 142.132111,314.209473 
	C125.546669,320.441833 109.159431,327.381958 93.227013,335.128235 
	C71.196785,345.839203 49.834709,357.801239 31.257751,374.157318 
	C18.768177,385.153748 7.164876,396.647400 2.791326,413.476349 
	C2.629907,414.097473 1.616399,414.497131 0.999993,415.000000 
M311.019043,494.476318 
	C318.775574,492.285156 326.595154,490.287537 334.252716,487.792664 
	C336.770874,486.972198 339.192932,485.191620 341.112244,483.296417 
	C377.829742,447.040710 414.461456,410.698120 451.129028,374.391785 
	C453.221710,372.319702 455.469971,370.404755 457.472260,368.575256 
	C432.299530,343.400208 407.802979,318.901398 383.438538,294.534760 
	C370.768402,306.718658 357.693939,318.978882 344.969971,331.592590 
	C319.051849,357.286102 293.246124,383.094666 267.620514,409.079163 
	C264.683472,412.057312 262.873260,416.316895 261.122986,420.242035 
	C259.695435,423.443298 259.169891,427.041809 258.190918,430.448822 
	C251.779694,452.761566 245.267944,475.045837 238.970749,497.390656 
	C236.017090,507.871277 242.669876,514.356567 253.166779,511.376465 
	C272.238037,505.962067 291.275208,500.427734 311.019043,494.476318 
M438.120270,242.366165 
	C432.571960,247.459595 427.023682,252.553024 421.236816,257.865479 
	C444.560272,281.153015 467.256653,303.866577 490.107269,326.423889 
	C490.950531,327.256287 493.979675,327.272919 494.833374,326.457947 
	C498.877899,322.597137 502.895294,318.594666 506.228180,314.125061 
	C513.245911,304.713898 511.889069,290.343689 503.956848,282.451416 
	C492.510803,271.063080 480.971039,259.763397 469.747742,248.158508 
	C460.725922,238.829987 450.439056,237.473953 438.120270,242.366165 
M461.000031,316.499969 
	C444.419006,299.916901 427.837982,283.333832 411.055389,266.549194 
	C406.036713,271.181213 401.471893,275.706940 396.561157,279.819550 
	C393.140656,282.684082 393.914093,284.541687 396.726929,287.330811 
	C419.207458,309.621979 441.547363,332.054962 463.942291,354.432556 
	C464.943146,355.432648 466.059723,356.316956 466.969116,357.119873 
	C472.223083,352.352295 477.049591,347.836975 482.035522,343.505188 
	C484.542816,341.326843 484.393555,339.736938 482.035217,337.463196 
	C475.079468,330.756927 468.330109,323.836578 461.000031,316.499969 
z"/>
<path fill="#7d59a5" opacity="1.000000" stroke="none" 
	d="
M0.999993,415.468628 
	C1.616399,414.497131 2.629907,414.097473 2.791326,413.476349 
	C7.164876,396.647400 18.768177,385.153748 31.257751,374.157318 
	C49.834709,357.801239 71.196785,345.839203 93.227013,335.128235 
	C109.159431,327.381958 125.546669,320.441833 142.132111,314.209473 
	C155.153275,309.316467 164.196609,291.767303 161.382538,279.810944 
	C159.416183,271.456299 155.872650,265.047852 150.463745,258.620209 
	C142.969803,249.714859 135.721863,240.275955 130.282837,230.047607 
	C122.892799,216.150253 116.659035,201.535065 111.139496,186.775208 
	C105.678535,172.171967 103.230080,156.795959 101.804352,141.146255 
	C99.703865,118.089867 102.440826,95.760956 110.225792,74.220787 
	C114.560173,62.228020 121.370499,51.365166 129.827835,41.445786 
	C146.026169,22.447193 166.793106,11.666588 190.578796,6.314367 
	C204.943375,3.082068 219.605698,3.276274 234.305099,4.868611 
	C248.172684,6.370840 261.400452,9.969208 273.636017,16.375414 
	C303.652130,32.091045 321.668304,57.191200 330.079498,89.776596 
	C334.600677,107.291870 334.916443,125.105080 333.747406,142.796768 
	C332.420410,162.879196 327.003265,182.305710 319.468903,201.023102 
	C311.445496,220.955536 300.463593,239.188858 287.349335,256.179657 
	C283.706848,260.898895 279.262634,265.373657 277.037598,270.729706 
	C273.172546,280.033508 272.539490,289.916016 275.885040,299.850891 
	C278.313080,307.061127 282.807251,311.741089 290.031403,314.078674 
	C294.289337,315.456451 298.406097,317.270691 303.104309,319.089111 
	C301.811462,320.499115 300.807343,321.679504 299.715576,322.772247 
	C280.868317,341.636353 262.348938,360.846344 243.017212,379.200653 
	C232.758774,388.940491 226.774460,400.485657 223.039032,413.712067 
	C218.307327,430.466217 213.371857,447.162659 208.566406,463.896088 
	C205.719147,473.810760 202.464264,483.646088 200.348999,493.717957 
	C199.228073,499.055267 200.150543,504.821716 200.150543,511.286774 
	C194.675278,510.931396 188.489777,510.524963 182.303360,510.132812 
	C181.145386,510.059387 179.982773,510.061615 178.824051,509.997192 
	C160.885773,508.999908 142.866241,508.748779 125.029503,506.813538 
	C100.545395,504.157104 76.184410,500.209900 52.811001,491.971130 
	C38.829094,487.042725 25.457747,481.005035 14.634963,470.273804 
	C8.046736,463.741302 3.678630,456.253448 1.364732,447.131378 
	C1.000000,436.645782 1.000000,426.291534 0.999993,415.468628 
z"/>
<path fill="#7d59a5" opacity="1.000000" stroke="none" 
	d="
M310.672821,494.709900 
	C291.275208,500.427734 272.238037,505.962067 253.166779,511.376465 
	C242.669876,514.356567 236.017090,507.871277 238.970749,497.390656 
	C245.267944,475.045837 251.779694,452.761566 258.190918,430.448822 
	C259.169891,427.041809 259.695435,423.443298 261.122986,420.242035 
	C262.873260,416.316895 264.683472,412.057312 267.620514,409.079163 
	C293.246124,383.094666 319.051849,357.286102 344.969971,331.592590 
	C357.693939,318.978882 370.768402,306.718658 383.438538,294.534760 
	C407.802979,318.901398 432.299530,343.400208 457.472260,368.575256 
	C455.469971,370.404755 453.221710,372.319702 451.129028,374.391785 
	C414.461456,410.698120 377.829742,447.040710 341.112244,483.296417 
	C339.192932,485.191620 336.770874,486.972198 334.252716,487.792664 
	C326.595154,490.287537 318.775574,492.285156 310.672821,494.709900 
M274.995117,451.430328 
	C273.372345,456.485809 271.722656,461.532837 270.135681,466.599487 
	C268.958679,470.357208 269.443359,473.197205 272.582428,476.442871 
	C276.780884,480.783875 280.525360,482.215515 285.829163,479.100006 
	C287.028656,478.395386 288.629333,478.398590 290.020691,477.991730 
	C300.270874,474.994263 310.514801,471.975433 322.211823,468.536713 
	C315.074921,465.165131 314.755005,459.992706 314.878540,454.228699 
	C315.007477,448.211182 314.169830,442.172913 313.741425,435.949890 
	C308.363556,435.619659 303.089417,436.078552 298.278595,434.797455 
	C292.576996,433.279175 285.141968,436.700409 281.640930,428.608490 
	C279.265442,436.478790 277.134949,443.537354 274.995117,451.430328 
z"/>
<path fill="#7d59a5" opacity="1.000000" stroke="none" 
	d="
M438.471893,242.194214 
	C450.439056,237.473953 460.725922,238.829987 469.747742,248.158508 
	C480.971039,259.763397 492.510803,271.063080 503.956848,282.451416 
	C511.889069,290.343689 513.245911,304.713898 506.228180,314.125061 
	C502.895294,318.594666 498.877899,322.597137 494.833374,326.457947 
	C493.979675,327.272919 490.950531,327.256287 490.107269,326.423889 
	C467.256653,303.866577 444.560272,281.153015 421.236816,257.865479 
	C427.023682,252.553024 432.571960,247.459595 438.471893,242.194214 
z"/>
<path fill="#7d59a5" opacity="1.000000" stroke="none" 
	d="
M461.250000,316.750000 
	C468.330109,323.836578 475.079468,330.756927 482.035217,337.463196 
	C484.393555,339.736938 484.542816,341.326843 482.035522,343.505188 
	C477.049591,347.836975 472.223083,352.352295 466.969116,357.119873 
	C466.059723,356.316956 464.943146,355.432648 463.942291,354.432556 
	C441.547363,332.054962 419.207458,309.621979 396.726929,287.330811 
	C393.914093,284.541687 393.140656,282.684082 396.561157,279.819550 
	C401.471893,275.706940 406.036713,271.181213 411.055389,266.549194 
	C427.837982,283.333832 444.419006,299.916901 461.250000,316.750000 
z"/>
<path fill="#FFFFFF" opacity="1.000000" stroke="none" 
	d="
M274.999817,451.013123 
	C277.134949,443.537354 279.265442,436.478790 281.640930,428.608490 
	C285.141968,436.700409 292.576996,433.279175 298.278595,434.797455 
	C303.089417,436.078552 308.363556,435.619659 313.741425,435.949890 
	C314.169830,442.172913 315.007477,448.211182 314.878540,454.228699 
	C314.755005,459.992706 315.074921,465.165131 322.211823,468.536713 
	C310.514801,471.975433 300.270874,474.994263 290.020691,477.991730 
	C288.629333,478.398590 287.028656,478.395386 285.829163,479.100006 
	C280.525360,482.215515 276.780884,480.783875 272.582428,476.442871 
	C269.443359,473.197205 268.958679,470.357208 270.135681,466.599487 
	C271.722656,461.532837 273.372345,456.485809 274.999817,451.013123 
z"/>
</svg>