<svg version="1.0" xmlns="http://www.w3.org/2000/svg"
 width="320.000000pt" height="317.000000pt" viewBox="0 0 320.000000 317.000000"
 preserveAspectRatio="xMidYMid meet">

<g transform="translate(0.000000,317.000000) scale(0.100000,-0.100000)"
fill="#ff0000" stroke="none">
<path d="M775 3163 c-381 -50 -666 -304 -752 -670 -17 -72 -18 -139 -18 -908
0 -769 1 -836 18 -908 78 -331 323 -576 654 -654 72 -17 139 -18 923 -18 784
0 851 1 923 18 331 78 576 323 654 654 17 72 18 139 18 908 0 769 -1 836 -18
908 -77 326 -314 567 -643 653 -64 16 -135 18 -899 20 -456 1 -843 0 -860 -3z
m1659 -149 c94 -24 215 -87 269 -140 67 -66 72 -78 42 -98 -13 -9 -28 -16 -33
-16 -13 0 -178 -55 -224 -74 -21 -9 -41 -17 -45 -17 -5 -1 -12 -3 -18 -4 -5
-2 -19 -6 -30 -8 -27 -7 -105 -35 -130 -47 -27 -12 -175 -60 -186 -60 -5 0
-28 -8 -52 -19 -23 -10 -87 -33 -142 -50 -55 -18 -107 -35 -115 -38 -8 -4 -21
-5 -27 -4 -7 1 -13 -2 -13 -8 0 -5 -15 -12 -32 -16 -40 -8 -92 -25 -196 -63
-42 -16 -102 -37 -132 -46 -30 -10 -65 -22 -77 -28 -21 -10 -21 -12 -6 -41 18
-35 303 -329 314 -325 5 2 124 118 266 259 237 236 262 258 310 272 79 23 149
1 219 -71 69 -71 88 -142 59 -220 -15 -39 -64 -93 -276 -307 l-259 -260 250
-250 c155 -155 258 -265 270 -291 34 -69 21 -163 -31 -234 -52 -69 -194 -103
-272 -64 -18 9 -146 129 -284 267 l-253 251 -252 -251 c-259 -258 -303 -292
-374 -293 -118 -1 -234 112 -234 227 1 90 23 120 291 389 l250 250 -237 233
c-130 127 -253 240 -273 250 -35 18 -38 18 -96 -1 -33 -10 -67 -22 -75 -25 -8
-3 -21 -5 -27 -4 -7 1 -13 -2 -13 -6 0 -4 -28 -16 -62 -27 -35 -10 -72 -22
-83 -26 -42 -17 -61 -23 -79 -27 -11 -2 -24 -8 -30 -13 -10 -7 -154 -50 -171
-50 -3 0 -5 119 -5 263 0 230 3 274 20 341 63 246 267 451 512 516 69 18 120
19 892 19 711 1 826 -1 880 -15z"/>
</g>
</svg>