<?xml version="1.0" encoding="UTF-8"?>
<!DOCTYPE svg PUBLIC "-//W3C//DTD SVG 1.1//EN" "http://www.w3.org/Graphics/SVG/1.1/DTD/svg11.dtd">
<svg xmlns="http://www.w3.org/2000/svg" version="1.1" width="600px" height="600px" style="shape-rendering:geometricPrecision; text-rendering:geometricPrecision; image-rendering:optimizeQuality; fill-rule:evenodd; clip-rule:evenodd" xmlns:xlink="http://www.w3.org/1999/xlink">
<g><path style="opacity:0.971" fill="#909090" d="M 276.5,42.5 C 305.677,38.8336 326.511,50.1669 339,76.5C 347.207,102.852 340.374,124.352 318.5,141C 290.364,155.862 265.531,151.695 244,128.5C 231.221,108.804 230.221,88.4709 241,67.5C 249.656,54.5939 261.49,46.2606 276.5,42.5 Z"/></g>
<g><path style="opacity:0.962" fill="#7d59a5" d="M -0.5,144.5 C -0.5,137.167 -0.5,129.833 -0.5,122.5C 7.4429,95.4066 25.6096,81.0732 54,79.5C 77.1755,80.7475 93.8422,91.7475 104,112.5C 113.566,141.436 105.733,164.27 80.5,181C 50.9861,193.971 26.4861,187.805 7,162.5C 3.78826,156.672 1.28826,150.672 -0.5,144.5 Z"/></g>
<g><path style="opacity:0.961" fill="#7d59a5" d="M 539.5,79.5 C 564.637,79.1629 582.804,90.1629 594,112.5C 603.566,141.436 595.733,164.27 570.5,181C 542.687,193.439 518.853,188.273 499,165.5C 485.175,143.631 485.508,121.964 500,100.5C 510.388,88.0583 523.555,81.0583 539.5,79.5 Z"/></g>
<g><path style="opacity:0.974" fill="#909090" d="M 282.5,152.5 C 305.254,149.36 324.42,156.027 340,172.5C 345.282,179.732 348.949,187.732 351,196.5C 351.5,230.832 351.667,265.165 351.5,299.5C 312.167,299.5 272.833,299.5 233.5,299.5C 233.333,265.165 233.5,230.832 234,196.5C 240.593,171.065 256.76,156.398 282.5,152.5 Z"/></g>
<g><path style="opacity:0.97" fill="#7d59a5" d="M -0.5,388.5 C -0.5,372.833 -0.5,357.167 -0.5,341.5C 2.36895,299.659 5.20229,257.659 8,215.5C 10.5004,208.315 15.0004,202.815 21.5,199C 40.062,190.864 59.3953,188.197 79.5,191C 95.5661,192.734 104.733,201.567 107,217.5C 109.018,230.832 110.851,244.165 112.5,257.5C 139.463,266.432 166.463,275.266 193.5,284C 197.027,285.873 198.693,288.873 198.5,293C 196.611,301.668 194.111,310.168 191,318.5C 189.543,322.96 186.543,325.626 182,326.5C 159.071,319.468 136.238,312.135 113.5,304.5C 112.222,335.154 111.556,365.82 111.5,396.5C 147.168,396.333 182.835,396.5 218.5,397C 221.728,398.563 223.895,401.063 225,404.5C 225.667,451.833 225.667,499.167 225,546.5C 224.3,550.066 222.467,552.9 219.5,555C 203.259,556.636 186.925,556.97 170.5,556C 166.056,553.889 163.556,550.389 163,545.5C 162.5,516.835 162.333,488.169 162.5,459.5C 143.299,459.815 124.133,459.482 105,458.5C 80.4868,462.267 56.3202,460.767 32.5,454C 16.5859,448.755 7.08595,437.921 4,421.5C 1.90951,410.429 0.409505,399.429 -0.5,388.5 Z"/></g>
<g><path style="opacity:0.971" fill="#7d59a5" d="M 599.5,315.5 C 599.5,339.5 599.5,363.5 599.5,387.5C 598.425,397.746 596.925,408.079 595,418.5C 592.102,436.145 582.269,447.978 565.5,454C 541.5,460.769 517.166,462.269 492.5,458.5C 473.547,459.487 454.547,459.821 435.5,459.5C 435.667,488.169 435.5,516.835 435,545.5C 434.434,550.397 431.934,553.897 427.5,556C 411.075,556.97 394.741,556.636 378.5,555C 375.894,553.062 374.061,550.562 373,547.5C 372.01,498.75 372.343,450.083 374,401.5C 375.543,399.622 377.376,398.122 379.5,397C 415.165,396.5 450.832,396.333 486.5,396.5C 486.324,365.823 485.657,335.156 484.5,304.5C 461.895,312.035 439.228,319.368 416.5,326.5C 413.37,326.352 410.87,325.018 409,322.5C 404.929,313.12 401.762,303.454 399.5,293.5C 399.2,289.194 400.866,286.028 404.5,284C 431.537,275.266 458.537,266.432 485.5,257.5C 486.944,241.339 489.444,225.339 493,209.5C 497.548,198.121 506.048,191.955 518.5,191C 536.01,188.622 553.01,190.622 569.5,197C 581.417,201.519 589.584,209.685 594,221.5C 595.583,253.005 597.416,284.338 599.5,315.5 Z"/></g>
<g><path style="opacity:0.915" fill="#7d59a5" d="M 199.5,304.5 C 264.501,304.333 329.501,304.5 394.5,305C 398.756,309.385 398.423,313.385 393.5,317C 329.167,317.667 264.833,317.667 200.5,317C 196.708,314.947 195.542,311.781 197,307.5C 198.045,306.627 198.878,305.627 199.5,304.5 Z"/></g>
<g><path style="opacity:0.966" fill="#7d59a5" d="M 153.5,328.5 C 247.167,328.333 340.834,328.5 434.5,329C 447.271,333.369 452.105,342.203 449,355.5C 447.212,360.92 443.712,364.753 438.5,367C 407.896,368.477 377.23,368.977 346.5,368.5C 347.638,417.818 347.805,467.151 347,516.5C 343.142,538.023 330.642,551.523 309.5,557C 300.5,557.667 291.5,557.667 282.5,557C 263.442,552.276 251.276,540.443 246,521.5C 244.873,496.194 244.373,470.86 244.5,445.5C 244.667,422.833 244.833,400.167 245,377.5C 245.218,374.574 245.718,371.74 246.5,369C 214.106,368.979 181.773,368.312 149.5,367C 137.88,359.122 135.38,348.955 142,336.5C 145.15,332.689 148.983,330.023 153.5,328.5 Z"/></g>
</svg>
