<svg width="82" height="78" viewBox="0 0 82 78" fill="none" xmlns="http://www.w3.org/2000/svg">
<path d="M36.7178 31.6035C37.4271 26.546 44.733 26.546 45.4424 31.6035V31.6035C45.7888 34.0734 48.1147 35.7633 50.5708 35.3295V35.3295C55.6 34.4413 57.8576 41.3896 53.2668 43.6271V43.6271C51.0249 44.7197 50.1364 47.4541 51.3079 49.6559V49.6559C53.7068 54.1644 47.7962 58.4587 44.2496 54.784V54.784C42.5176 52.9895 39.6426 52.9895 37.9106 54.784V54.784C34.364 58.4587 28.4534 54.1644 30.8523 49.6559V49.6559C32.0238 47.4541 31.1353 44.7197 28.8934 43.6271V43.6271C24.3026 41.3896 26.5602 34.4413 31.5894 35.3295V35.3295C34.0454 35.7633 36.3714 34.0734 36.7178 31.6035V31.6035Z" fill="#FEDC12"/>
<path d="M41.25 38.0127V48H39.6025V39.9678L37.1621 40.7949V39.4346L41.0518 38.0127H41.25Z" fill="black"/>
</svg>
