<svg width="200" height="200" viewBox="0 0 200 200" xmlns="http://www.w3.org/2000/svg">
  <!-- Animated fist bump icon -->
  <g id="fist-bump" transform="translate(100, 100)">
    <!-- Fist shape -->
    <path d="M-40,-20 Q-45,-30 -35,-35 Q-25,-40 -15,-35 Q-5,-40 5,-35 Q15,-40 25,-35 Q35,-30 30,-20 L25,-10 Q30,0 25,10 Q20,15 10,15 L-30,15 Q-40,10 -40,0 Q-45,-10 -40,-20 Z" 
          fill="#F4E4BC" 
          stroke="#8B4513" 
          stroke-width="2">
      <!-- Pulse animation -->
      <animateTransform 
        attributeName="transform" 
        type="scale" 
        values="1;1.1;1" 
        dur="1.5s" 
        repeatCount="indefinite"/>
    </path>
    
    <!-- Thumb -->
    <ellipse cx="-45" cy="0" rx="8" ry="12" 
             fill="#F4E4BC" 
             stroke="#8B4513" 
             stroke-width="2">
      <animateTransform 
        attributeName="transform" 
        type="scale" 
        values="1;1.1;1" 
        dur="1.5s" 
        repeatCount="indefinite"/>
    </ellipse>
    
    <!-- Knuckles -->
    <circle cx="-20" cy="-15" r="3" fill="#E6D3A3"/>
    <circle cx="-8" cy="-18" r="3" fill="#E6D3A3"/>
    <circle cx="4" cy="-18" r="3" fill="#E6D3A3"/>
    <circle cx="16" cy="-15" r="3" fill="#E6D3A3"/>
  </g>
  
  <!-- Waiting dots animation -->
  <g transform="translate(100, 160)">
    <circle cx="-15" cy="0" r="4" fill="#8B4513">
      <animate attributeName="opacity" values="1;0.3;1" dur="1s" begin="0s" repeatCount="indefinite"/>
    </circle>
    <circle cx="0" cy="0" r="4" fill="#8B4513">
      <animate attributeName="opacity" values="1;0.3;1" dur="1s" begin="0.33s" repeatCount="indefinite"/>
    </circle>
    <circle cx="15" cy="0" r="4" fill="#8B4513">
      <animate attributeName="opacity" values="1;0.3;1" dur="1s" begin="0.66s" repeatCount="indefinite"/>
    </circle>
  </g>
</svg>
