<?xml version="1.0" encoding="UTF-8"?>
<!DOCTYPE svg PUBLIC "-//W3C//DTD SVG 1.1//EN" "http://www.w3.org/Graphics/SVG/1.1/DTD/svg11.dtd">
<svg xmlns="http://www.w3.org/2000/svg" version="1.1" width="200px" height="200px" style="shape-rendering:geometricPrecision; text-rendering:geometricPrecision; image-rendering:optimizeQuality; fill-rule:evenodd; clip-rule:evenodd" xmlns:xlink="http://www.w3.org/1999/xlink">
<g><path style="opacity:0.945" fill="#7c5aa8" d="M 199.5,70.5 C 199.5,75.8333 199.5,81.1667 199.5,86.5C 197.931,93.0104 195.098,99.0104 191,104.5C 186.265,109.404 181.432,114.07 176.5,118.5C 178.4,126.406 182.4,133.072 188.5,138.5C 188.291,139.086 187.957,139.586 187.5,140C 173.135,140.736 161.302,135.57 152,124.5C 127.101,127.214 106.767,118.881 91,99.5C 76.121,69.4703 83.621,46.9703 113.5,32C 143.056,21.9315 168.556,28.0982 190,50.5C 194.552,56.6008 197.719,63.2675 199.5,70.5 Z M 130.5,45.5 C 133.167,45.5 135.833,45.5 138.5,45.5C 138.5,48.5 138.5,51.5 138.5,54.5C 146.891,53.9192 155.224,52.9192 163.5,51.5C 163.737,54.2116 163.737,56.7116 163.5,59C 155.161,59.9286 146.828,60.7619 138.5,61.5C 137.795,64.2443 137.795,66.911 138.5,69.5C 142.094,68.5741 145.76,68.2408 149.5,68.5C 149.5,67.5 149.5,66.5 149.5,65.5C 153.443,65.3791 156.443,66.8791 158.5,70C 171.443,75.8305 174.61,84.9972 168,97.5C 163.712,102.236 158.545,104.569 152.5,104.5C 151.833,103.167 151.167,101.833 150.5,100.5C 154.235,98.8833 157.735,96.8833 161,94.5C 165.726,86.2141 163.726,80.2141 155,76.5C 151.458,82.7164 147.125,88.3831 142,93.5C 141.424,95.3774 141.591,97.2108 142.5,99C 140.977,100.854 139.144,102.354 137,103.5C 136.477,101.777 135.477,100.444 134,99.5C 128.681,102.473 123.181,102.973 117.5,101C 112.399,94.769 112.232,88.269 117,81.5C 120.612,77.1979 124.945,73.8646 130,71.5C 130.498,68.1832 130.665,64.8499 130.5,61.5C 125.833,61.5 121.167,61.5 116.5,61.5C 116.5,59.1667 116.5,56.8333 116.5,54.5C 121.167,54.5 125.833,54.5 130.5,54.5C 130.5,51.5 130.5,48.5 130.5,45.5 Z"/></g>
<g><path style="opacity:0.952" fill="#7c5aa8" d="M -0.5,115.5 C -0.5,110.833 -0.5,106.167 -0.5,101.5C 5.61662,79.8842 19.6166,66.0509 41.5,60C 52.7574,57.1524 64.0907,56.8191 75.5,59C 80.808,59.4513 81.9746,61.9513 79,66.5C 77.0336,86.0677 83.5336,102.234 98.5,115C 102.852,118.026 107.185,121.026 111.5,124C 105.001,136.83 95.001,145.83 81.5,151C 70.1522,154.757 58.4855,156.424 46.5,156C 37.1418,166.515 25.4751,171.181 11.5,170C 11.0426,169.586 10.7093,169.086 10.5,168.5C 16.9167,163.739 20.9167,157.405 22.5,149.5C 17.9561,144.452 13.1228,139.452 8,134.5C 4.02179,128.554 1.18845,122.221 -0.5,115.5 Z M 48.5,76.5 C 53.3222,75.9347 57.8222,76.6013 62,78.5C 67.4283,97.7175 72.9283,116.884 78.5,136C 74.7887,136.825 71.122,136.659 67.5,135.5C 65.696,130.617 64.3627,125.617 63.5,120.5C 57.5,120.5 51.5,120.5 45.5,120.5C 44.4964,125.516 43.3298,130.516 42,135.5C 38.6064,136.456 35.1064,136.789 31.5,136.5C 36.7668,116.369 42.4335,96.3686 48.5,76.5 Z"/></g>
<g><path style="opacity:0.71" fill="#7c5aa8" d="M 143.5,74.5 C 144.5,74.5 145.5,74.5 146.5,74.5C 145.707,79.4216 143.374,83.4216 139.5,86.5C 138.511,82.8927 138.177,79.226 138.5,75.5C 140.415,75.7845 142.081,75.4511 143.5,74.5 Z"/></g>
<g><path style="opacity:0.808" fill="#7c5aa8" d="M 129.5,78.5 C 130.765,79.5145 131.431,81.0145 131.5,83C 134.636,90.1396 132.469,94.3063 125,95.5C 120.309,93.4218 119.309,90.0884 122,85.5C 124.396,82.9334 126.896,80.6 129.5,78.5 Z"/></g>
<g><path style="opacity:0.812" fill="#7c5aa8" d="M 53.5,85.5 C 54.6491,85.7911 55.3158,86.6244 55.5,88C 57.2667,95.9004 59.2667,103.734 61.5,111.5C 56.8333,112.833 52.1667,112.833 47.5,111.5C 50.1321,102.972 52.1321,94.3053 53.5,85.5 Z"/></g>
</svg>
