<svg version="1.1" id="Layer_1" xmlns="http://www.w3.org/2000/svg" xmlns:xlink="http://www.w3.org/1999/xlink" x="0px" y="0px"
	 width="100%" viewBox="0 0 988 252" xml:space="preserve">
<path fill="#ffff" fill-opacity="0" opacity="1.000000" stroke="none" 
	d="
M715.000000,253.000000 
	C476.666656,253.000000 238.833328,253.000000 1.000000,253.000000 
	C1.000000,169.000000 1.000000,85.000000 1.000000,1.000000 
	C330.333344,1.000000 659.666687,1.000000 989.000000,1.000000 
	C989.000000,85.000000 989.000000,169.000000 989.000000,253.000000 
	C897.833313,253.000000 806.666687,253.000000 715.000000,253.000000 
M838.805176,169.824738 
	C841.242981,166.567780 843.680725,163.310822 846.717834,159.737488 
	C848.827393,157.837540 850.936890,155.937592 853.015259,154.013611 
	C853.015259,154.013611 852.984314,153.990479 853.052795,154.687256 
	C852.934814,156.318176 852.796814,157.947952 852.702637,159.580246 
	C852.427246,164.353394 852.267944,169.135544 851.882690,173.899551 
	C851.216003,182.142105 851.738281,190.324753 855.201721,197.840744 
	C861.621460,211.772446 873.768921,218.263489 888.187622,219.784149 
	C896.003845,220.608475 904.106018,218.588913 912.091736,218.030807 
	C914.097351,217.890640 916.764343,217.699020 918.081726,218.791718 
	C925.802979,225.195969 935.077393,220.922043 943.475403,222.687134 
	C948.570984,223.758148 954.294556,221.573898 959.759827,221.229141 
	C965.161377,220.888428 965.450317,220.471771 964.594482,214.842484 
	C962.546326,201.370651 958.414612,188.201462 960.844238,174.151016 
	C962.750671,163.126205 963.464783,151.858749 964.100952,140.664566 
	C964.478088,134.026779 964.774841,127.049896 963.201538,120.697617 
	C958.189331,100.460823 944.471497,92.908417 925.863647,88.851372 
	C915.865723,86.671532 905.945435,87.532234 896.014648,88.065437 
	C882.717102,88.779442 869.615234,90.515984 862.105042,102.934624 
	C858.203247,100.014099 854.797363,96.739090 850.786316,94.597672 
	C838.425293,87.998489 825.495605,86.186714 812.052307,91.386810 
	C811.210388,91.712463 809.958740,91.825508 809.216370,91.433708 
	C799.586975,86.351761 789.114563,86.982849 778.955200,87.793358 
	C765.136475,88.895805 756.997620,95.110352 757.027649,109.319328 
	C757.036987,113.768539 757.832458,118.210739 758.095825,122.666321 
	C758.335022,126.713173 757.710754,130.914978 758.581543,134.798599 
	C760.309448,142.504822 761.790894,150.075089 759.888611,157.966568 
	C759.472229,159.693832 759.467651,161.719940 759.933838,163.428207 
	C763.106567,175.054459 758.929626,186.343842 758.427795,197.789093 
	C758.188904,203.237320 756.679138,208.629822 755.785400,213.813980 
	C761.197449,215.407593 765.709656,217.604309 770.348633,217.916153 
	C779.204224,218.511459 788.306519,219.078217 796.968567,217.632553 
	C802.758606,216.666214 808.790344,213.113724 813.231384,209.084473 
	C819.261902,203.613358 820.830566,195.435089 820.858826,187.419464 
	C820.887451,179.302933 820.287903,171.181976 819.882751,163.066986 
	C819.651672,158.438065 819.077454,153.817856 819.061096,149.192291 
	C819.056702,147.962143 820.434937,145.757523 821.359375,145.656418 
	C826.136414,145.134079 830.972168,145.149567 836.174011,145.759293 
	C836.446045,152.252777 836.656921,158.749802 837.033936,165.237183 
	C837.126160,166.823196 837.762634,168.377579 838.805176,169.824738 
M608.150635,104.135353 
	C610.181458,100.386452 612.212341,96.637543 614.666199,92.107689 
	C609.063965,93.083939 603.985779,94.050331 598.879822,94.835999 
	C593.631042,95.643646 588.346008,96.213737 583.093567,96.999504 
	C577.094482,97.896965 571.085266,98.771469 565.135132,99.935318 
	C561.046265,100.735100 557.050598,102.010925 552.521179,103.070229 
	C552.521179,103.070229 552.040344,102.965378 551.882935,102.533585 
	C551.569153,102.670883 551.255432,102.808182 550.112488,103.041084 
	C547.849548,103.348976 545.587769,103.913719 543.323547,103.923187 
	C528.345337,103.985886 516.408569,110.402382 506.807159,121.474113 
	C500.116272,129.189651 495.805176,138.092087 495.924591,148.513626 
	C496.006409,155.653076 495.823608,163.013702 497.459900,169.869537 
	C500.417938,182.263000 507.886810,191.882339 518.958496,198.513428 
	C532.172241,206.427551 546.215637,207.782990 560.992249,204.119354 
	C571.879578,201.419983 580.101318,194.638474 586.959106,186.378098 
	C592.015381,180.287720 596.265381,173.381180 597.278564,164.396194 
	C600.125244,157.915268 602.971863,151.434341 606.115295,144.328842 
	C612.923523,136.771240 621.687256,135.281403 630.981323,137.287109 
	C635.116272,138.179443 639.923584,139.250259 642.168152,144.682953 
	C644.107910,148.572464 645.992859,152.490646 648.003418,156.343201 
	C649.902649,159.982407 651.934021,163.552628 653.985107,167.754837 
	C653.868530,168.134613 653.751953,168.514389 653.189270,169.188263 
	C653.464478,169.798340 653.739685,170.408401 653.980835,171.758545 
	C657.407043,177.470352 660.130859,183.783493 664.401733,188.772141 
	C674.106689,200.108032 686.791138,205.780182 701.887695,205.945404 
	C710.293640,206.037415 718.444641,204.717026 725.903442,201.016861 
	C745.359680,191.364990 758.760925,168.652756 753.992126,145.699295 
	C751.266357,132.579559 744.458435,122.254089 733.962708,113.934288 
	C723.300781,105.482803 710.798950,103.928276 697.505188,102.317337 
	C689.714844,101.149979 681.911316,100.063652 674.137878,98.792770 
	C666.175537,97.490990 658.277466,95.739471 650.283997,94.705101 
	C645.417908,94.075417 640.495728,91.203102 635.917297,93.672234 
	C637.760010,97.703377 639.439392,101.377213 641.019775,105.877121 
	C640.947510,107.918213 641.728394,110.523560 637.437012,110.026810 
	C636.239014,109.353539 635.041077,108.680267 633.982788,107.270218 
	C631.511353,99.182854 628.552795,98.332550 621.421326,98.476700 
	C618.060852,98.544640 615.201843,103.308701 614.146606,108.964218 
	C613.070435,109.385918 611.994263,109.807617 610.095520,110.073486 
	C606.035950,109.705032 608.978394,106.431213 608.150635,104.135353 
M48.398243,132.596313 
	C48.595100,143.388885 48.791958,154.181473 48.977283,165.830429 
	C48.983707,166.661957 49.131367,167.521042 48.975235,168.320831 
	C46.843166,179.242691 44.625317,190.147919 42.521801,201.075180 
	C41.259865,207.630600 45.334049,215.673782 51.249969,217.733490 
	C62.539398,221.664047 73.834045,224.224609 86.164940,222.209045 
	C97.370956,220.377350 105.276131,216.050339 107.556015,204.316086 
	C115.508217,206.783752 119.666702,208.847473 137.656616,204.676651 
	C138.556015,210.698181 140.955246,215.729279 147.068054,218.091949 
	C158.514633,222.516220 170.262955,223.204086 182.161301,220.512833 
	C189.201294,218.920486 195.909622,216.443726 200.369476,210.063248 
	C210.923553,224.931625 249.850067,226.414032 263.517151,213.003311 
	C273.608887,226.706131 307.410431,226.913589 322.790710,213.458405 
	C330.144501,220.903641 339.516327,223.681015 349.511688,222.791183 
	C356.716522,222.149765 363.928162,220.027725 370.797241,217.603836 
	C377.868378,215.108627 384.527893,211.446854 391.479309,208.244019 
	C396.887177,213.460480 402.254791,218.439392 410.546448,219.092636 
	C418.142334,219.691071 425.557404,220.388367 432.916626,217.728485 
	C434.819916,217.040573 437.632385,216.016724 438.882629,216.854752 
	C445.109131,221.028366 452.014801,221.657990 459.113373,221.905975 
	C468.589020,222.236969 478.005066,221.568390 485.489288,215.134659 
	C488.416168,212.618561 491.177216,208.391647 491.522552,204.710236 
	C492.215240,197.325851 491.359222,189.768921 490.829163,182.305435 
	C490.376343,175.929688 489.497162,169.583755 488.785309,163.227005 
	C487.891144,155.242279 486.472137,147.276749 486.205566,139.272095 
	C485.920166,130.702194 486.483673,122.079910 487.105011,113.511551 
	C487.600677,106.676804 488.608337,99.869003 489.625610,93.084770 
	C490.960052,84.185013 494.151520,75.986313 500.891998,68.063011 
	C491.799896,64.466080 483.544128,61.376228 475.435303,57.939564 
	C468.184509,54.866524 460.777100,55.807526 453.812103,57.762882 
	C440.105988,61.610748 434.416626,72.777908 432.239899,85.594635 
	C431.332733,90.936310 428.697601,91.533562 424.998505,90.787354 
	C413.383331,88.444221 402.835632,91.143623 393.529907,97.827820 
	C385.600067,103.523720 380.987457,111.980385 377.650177,122.527000 
	C376.888092,119.695343 376.551239,118.162689 376.064026,116.679420 
	C373.123260,107.726486 369.209473,99.539749 360.397705,94.663429 
	C353.815186,91.020767 347.005951,89.799072 339.540009,90.645767 
	C335.039642,91.156158 330.301575,91.316895 325.890442,90.477654 
	C318.365845,89.046066 311.165680,87.117859 303.191284,87.645058 
	C295.751709,88.136894 289.013214,89.566727 282.377197,92.712524 
	C280.244354,93.723595 277.475800,94.248940 275.178375,93.878494 
	C270.482635,93.121323 265.909180,91.606064 261.220306,90.386101 
	C272.807526,66.792381 261.998169,47.816151 243.806870,41.468025 
	C232.617004,37.563152 221.287109,39.217171 211.873596,46.985172 
	C205.574112,52.183483 202.976685,59.816685 201.528687,67.967072 
	C199.907333,67.577652 198.621582,67.369202 197.403366,66.959801 
	C189.979279,64.464790 182.623123,61.754818 175.145859,59.433670 
	C159.257721,54.501556 142.582123,61.310581 137.361633,79.089348 
	C134.751328,87.978920 131.690689,96.736275 128.571243,106.363525 
	C126.535133,98.826736 124.768188,91.999222 122.840858,85.217278 
	C119.700645,74.167419 114.847519,64.166756 102.533569,61.240589 
	C89.467171,58.135616 76.241035,57.519352 63.055565,61.424629 
	C50.371922,65.181274 44.615421,74.583290 45.975945,87.597244 
	C47.519871,102.365517 47.998913,117.245125 48.398243,132.596313 
z"/>
<path fill="#412F74" opacity="1.000000" stroke="none" 
	d="
M48.940903,132.076324 
	C47.998913,117.245125 47.519871,102.365517 45.975945,87.597244 
	C44.615421,74.583290 50.371922,65.181274 63.055565,61.424629 
	C76.241035,57.519352 89.467171,58.135616 102.533569,61.240589 
	C114.847519,64.166756 119.700645,74.167419 122.840858,85.217278 
	C124.768188,91.999222 126.535133,98.826736 128.571243,106.363525 
	C131.690689,96.736275 134.751328,87.978920 137.361633,79.089348 
	C142.582123,61.310581 159.257721,54.501556 175.145859,59.433670 
	C182.623123,61.754818 189.979279,64.464790 197.403366,66.959801 
	C198.621582,67.369202 199.907333,67.577652 201.528687,67.967072 
	C202.976685,59.816685 205.574112,52.183483 211.873596,46.985172 
	C221.287109,39.217171 232.617004,37.563152 243.806870,41.468025 
	C261.998169,47.816151 272.807526,66.792381 261.220306,90.386101 
	C265.909180,91.606064 270.482635,93.121323 275.178375,93.878494 
	C277.475800,94.248940 280.244354,93.723595 282.377197,92.712524 
	C289.013214,89.566727 295.751709,88.136894 303.191284,87.645058 
	C311.165680,87.117859 318.365845,89.046066 325.890442,90.477654 
	C330.301575,91.316895 335.039642,91.156158 339.540009,90.645767 
	C347.005951,89.799072 353.815186,91.020767 360.397705,94.663429 
	C369.209473,99.539749 373.123260,107.726486 376.064026,116.679420 
	C376.551239,118.162689 376.888092,119.695343 377.650177,122.527000 
	C380.987457,111.980385 385.600067,103.523720 393.529907,97.827820 
	C402.835632,91.143623 413.383331,88.444221 424.998505,90.787354 
	C428.697601,91.533562 431.332733,90.936310 432.239899,85.594635 
	C434.416626,72.777908 440.105988,61.610748 453.812103,57.762882 
	C460.777100,55.807526 468.184509,54.866524 475.435303,57.939564 
	C483.544128,61.376228 491.799896,64.466080 500.891998,68.063011 
	C494.151520,75.986313 490.960052,84.185013 489.625610,93.084770 
	C488.608337,99.869003 487.600677,106.676804 487.105011,113.511551 
	C486.483673,122.079910 485.920166,130.702194 486.205566,139.272095 
	C486.472137,147.276749 487.891144,155.242279 488.785309,163.227005 
	C489.497162,169.583755 490.376343,175.929688 490.829163,182.305435 
	C491.359222,189.768921 492.215240,197.325851 491.522552,204.710236 
	C491.177216,208.391647 488.416168,212.618561 485.489288,215.134659 
	C478.005066,221.568390 468.589020,222.236969 459.113373,221.905975 
	C452.014801,221.657990 445.109131,221.028366 438.882629,216.854752 
	C437.632385,216.016724 434.819916,217.040573 432.916626,217.728485 
	C425.557404,220.388367 418.142334,219.691071 410.546448,219.092636 
	C402.254791,218.439392 396.887177,213.460480 391.479309,208.244019 
	C384.527893,211.446854 377.868378,215.108627 370.797241,217.603836 
	C363.928162,220.027725 356.716522,222.149765 349.511688,222.791183 
	C339.516327,223.681015 330.144501,220.903641 322.790710,213.458405 
	C307.410431,226.913589 273.608887,226.706131 263.517151,213.003311 
	C249.850067,226.414032 210.923553,224.931625 200.369476,210.063248 
	C195.909622,216.443726 189.201294,218.920486 182.161301,220.512833 
	C170.262955,223.204086 158.514633,222.516220 147.068054,218.091949 
	C140.955246,215.729279 138.556015,210.698181 137.656616,204.676651 
	C119.666702,208.847473 115.508217,206.783752 107.556015,204.316086 
	C105.276131,216.050339 97.370956,220.377350 86.164940,222.209045 
	C73.834045,224.224609 62.539398,221.664047 51.249969,217.733490 
	C45.334049,215.673782 41.259865,207.630600 42.521801,201.075180 
	C44.625317,190.147919 46.843166,179.242691 48.975235,168.320831 
	C49.131367,167.521042 48.983707,166.661957 49.138062,165.030304 
	C49.179527,153.512238 49.060215,142.794281 48.940903,132.076324 
M481.964264,208.004303 
	C481.964264,208.004303 481.939087,207.949631 482.591644,207.807190 
	C483.076355,206.209625 483.561066,204.612045 484.097961,202.105301 
	C484.070190,199.068954 484.042419,196.032623 484.464996,192.398987 
	C484.652985,190.489517 484.840942,188.580048 485.028931,186.670578 
	C484.860687,186.673111 484.692474,186.675644 484.524231,186.678177 
	C484.016113,188.124420 483.507996,189.570663 482.616119,190.356918 
	C482.415039,185.222198 482.519287,180.052322 481.933502,174.961868 
	C481.242371,168.955490 479.809723,163.038452 478.952637,157.046326 
	C476.531830,140.121841 477.548828,123.166656 479.038452,106.254555 
	C479.594299,99.943748 480.778809,93.639862 482.262543,87.473793 
	C483.569153,82.043655 485.692627,76.810074 487.785797,70.492302 
	C480.735687,68.560242 473.771698,66.070488 466.592072,64.863815 
	C460.593170,63.855591 454.720551,64.949821 449.864166,69.743874 
	C442.066986,77.440887 439.106506,86.781708 439.019104,97.390511 
	C439.002441,99.411560 438.730652,101.430511 438.513611,104.276016 
	C431.503723,99.348946 424.690735,98.726143 417.189636,98.870758 
	C406.287079,99.080925 398.364716,103.724121 392.174530,111.951027 
	C384.563843,122.065857 382.830139,134.160172 382.095947,146.286911 
	C381.699768,152.831024 383.018005,159.459824 383.038208,166.052017 
	C383.089844,182.899689 390.207214,196.431244 402.832306,206.884644 
	C406.423553,209.858154 412.089905,211.860794 416.706543,211.687912 
	C423.066376,211.449753 429.307373,208.613205 435.654480,207.125076 
	C437.681427,206.649841 441.160950,206.053696 441.800262,206.993225 
	C446.219147,213.487396 453.301880,213.158310 459.500488,213.808151 
	C466.906342,214.584579 474.150421,212.197708 481.354462,208.703888 
	C481.612518,208.494781 481.816101,208.241837 481.964264,208.004303 
M372.126709,161.130386 
	C372.156708,158.096771 372.186707,155.063171 372.684662,151.873901 
	C372.527435,151.239609 372.370209,150.605316 372.120087,149.064972 
	C371.493073,136.763947 370.665070,124.522820 365.298584,113.095245 
	C361.830078,105.709282 357.108643,99.703552 348.389984,99.138504 
	C342.781555,98.775032 337.044647,99.223900 331.463013,100.006073 
	C327.374664,100.578995 323.445190,102.285553 318.783417,103.685486 
	C318.994843,101.556496 319.200531,99.485451 319.422852,97.246910 
	C307.993286,94.683029 296.611481,94.738930 286.295319,100.620209 
	C271.748169,108.913574 269.949860,124.158546 271.152405,138.671051 
	C271.952179,148.322891 274.070312,157.970093 273.829346,167.574997 
	C273.573395,177.776550 271.536102,187.982040 269.689789,198.078491 
	C268.398315,205.140533 271.030029,210.632385 277.889862,212.970749 
	C288.007385,216.419571 298.184235,215.584015 307.970154,212.293900 
	C313.598297,210.401657 318.526855,206.445023 318.944519,199.601807 
	C319.485992,190.730438 319.655731,181.836411 319.976959,172.020782 
	C320.021423,161.712555 320.065918,151.404327 320.708923,140.649124 
	C325.459808,139.756332 327.035156,141.052505 326.959198,146.338242 
	C326.708557,163.773163 326.225677,181.205414 326.075500,198.640793 
	C326.014954,205.666290 330.912140,211.067673 337.614227,212.966888 
	C347.216614,215.687988 356.249786,213.037689 365.225861,210.320068 
	C369.793793,208.937057 374.095428,206.674500 377.898041,205.070740 
	C370.441620,193.371674 372.192688,181.013138 372.567596,168.337479 
	C372.442139,166.238464 372.316681,164.139450 372.126709,161.130386 
M150.517410,210.237823 
	C154.694199,210.933441 158.871658,212.201019 163.047638,212.196228 
	C170.042450,212.188187 177.268341,212.275497 183.947556,210.566360 
	C188.271957,209.459824 194.353226,205.834473 195.196213,202.281662 
	C197.643387,191.968002 198.745819,181.118057 198.702515,170.485306 
	C198.647568,157.001480 196.664597,143.537216 196.047958,130.040085 
	C195.581955,119.840355 195.457321,109.569519 196.127441,99.392662 
	C196.583694,92.463608 196.024963,84.802902 203.565216,78.643326 
	C192.778229,74.611137 183.116394,69.774254 172.884583,67.486488 
	C160.230820,64.657204 151.493256,67.015259 147.741165,76.456551 
	C141.982346,90.947281 138.455002,106.328346 134.050797,121.352127 
	C132.364487,127.104485 130.871017,132.913376 129.289673,138.696518 
	C128.756058,138.706665 128.222443,138.716827 127.688820,138.726990 
	C126.750923,135.009415 125.779221,131.299973 124.881630,127.572685 
	C122.467628,117.548386 120.381615,107.433075 117.590996,97.515518 
	C115.575310,90.351982 112.836296,83.365921 109.986107,76.480263 
	C109.203308,74.589149 107.098579,72.904861 105.195259,71.873238 
	C92.954567,65.238663 79.965797,65.894249 67.078239,69.092484 
	C60.833336,70.642242 54.671104,73.561737 54.323475,81.504784 
	C54.166199,85.098396 54.889294,88.723099 55.079556,92.340714 
	C55.729816,104.704956 56.262779,117.075623 56.966343,129.436676 
	C57.208969,133.699402 57.928692,137.933350 58.235596,142.194473 
	C58.614601,147.456619 59.695827,152.878677 58.877815,157.975525 
	C56.749420,171.237076 53.305103,184.290039 51.253880,197.560410 
	C49.910645,206.250443 49.027084,207.878952 58.904991,211.269531 
	C67.713509,214.293045 76.564529,213.982635 85.410477,213.700378 
	C89.238487,213.578217 94.032883,211.840805 96.471977,209.119507 
	C98.881218,206.431534 99.122330,201.622040 99.851593,197.658066 
	C100.540871,193.911499 100.628372,190.054214 101.031883,185.690643 
	C111.860359,204.323608 129.238937,200.814941 149.143280,188.391464 
	C148.380768,192.130493 148.069763,195.261520 147.076462,198.158646 
	C145.492844,202.777435 145.528992,206.770920 150.517410,210.237823 
M256.640045,132.115082 
	C253.792526,119.934013 260.361816,110.631180 266.594299,100.290382 
	C257.594025,98.920113 248.920959,97.599663 239.097061,96.103996 
	C247.817825,91.375404 254.857300,86.665749 257.221680,77.366661 
	C259.682037,67.690025 255.974915,59.823391 249.194183,54.047810 
	C237.918732,44.443813 224.715347,45.867779 214.919998,56.751751 
	C209.788177,62.453911 208.734406,69.946106 210.276062,76.977119 
	C212.627792,87.702644 220.039658,94.368996 231.078781,97.262299 
	C229.072189,98.608452 227.278488,99.248466 225.521240,99.976494 
	C216.670532,103.643364 209.881104,108.704636 207.716705,119.154297 
	C205.941772,127.723579 208.519897,135.512695 209.447464,143.617920 
	C210.470993,152.561798 212.842773,161.497269 212.655670,170.394928 
	C212.446701,180.332504 210.228867,190.259949 208.486969,200.121429 
	C207.396805,206.293304 209.759415,209.834167 215.839386,211.926254 
	C226.891785,215.729340 237.777313,213.593262 248.586807,211.533157 
	C253.747299,210.549667 258.606476,207.723251 259.092682,201.441925 
	C259.830902,191.903915 261.026855,182.309143 260.626740,172.797440 
	C260.066803,159.485870 258.217896,146.228531 256.640045,132.115082 
M204.942810,92.841370 
	C204.570587,96.542274 204.198349,100.243187 203.805710,104.147049 
	C206.929443,101.262787 209.276978,99.095207 211.744370,96.816956 
	C210.085327,94.859894 208.408401,92.851341 206.638443,90.928429 
	C206.580399,90.865356 205.575714,91.673615 204.942810,92.841370 
z"/>
<path fill="#423074" opacity="1.000000" stroke="none" 
	d="
M835.787476,144.977478 
	C830.972168,145.149567 826.136414,145.134079 821.359375,145.656418 
	C820.434937,145.757523 819.056702,147.962143 819.061096,149.192291 
	C819.077454,153.817856 819.651672,158.438065 819.882751,163.066986 
	C820.287903,171.181976 820.887451,179.302933 820.858826,187.419464 
	C820.830566,195.435089 819.261902,203.613358 813.231384,209.084473 
	C808.790344,213.113724 802.758606,216.666214 796.968567,217.632553 
	C788.306519,219.078217 779.204224,218.511459 770.348633,217.916153 
	C765.709656,217.604309 761.197449,215.407593 755.785400,213.813980 
	C756.679138,208.629822 758.188904,203.237320 758.427795,197.789093 
	C758.929626,186.343842 763.106567,175.054459 759.933838,163.428207 
	C759.467651,161.719940 759.472229,159.693832 759.888611,157.966568 
	C761.790894,150.075089 760.309448,142.504822 758.581543,134.798599 
	C757.710754,130.914978 758.335022,126.713173 758.095825,122.666321 
	C757.832458,118.210739 757.036987,113.768539 757.027649,109.319328 
	C756.997620,95.110352 765.136475,88.895805 778.955200,87.793358 
	C789.114563,86.982849 799.586975,86.351761 809.216370,91.433708 
	C809.958740,91.825508 811.210388,91.712463 812.052307,91.386810 
	C825.495605,86.186714 838.425293,87.998489 850.786316,94.597672 
	C854.797363,96.739090 858.203247,100.014099 862.105042,102.934624 
	C869.615234,90.515984 882.717102,88.779442 896.014648,88.065437 
	C905.945435,87.532234 915.865723,86.671532 925.863647,88.851372 
	C944.471497,92.908417 958.189331,100.460823 963.201538,120.697617 
	C964.774841,127.049896 964.478088,134.026779 964.100952,140.664566 
	C963.464783,151.858749 962.750671,163.126205 960.844238,174.151016 
	C958.414612,188.201462 962.546326,201.370651 964.594482,214.842484 
	C965.450317,220.471771 965.161377,220.888428 959.759827,221.229141 
	C954.294556,221.573898 948.570984,223.758148 943.475403,222.687134 
	C935.077393,220.922043 925.802979,225.195969 918.081726,218.791718 
	C916.764343,217.699020 914.097351,217.890640 912.091736,218.030807 
	C904.106018,218.588913 896.003845,220.608475 888.187622,219.784149 
	C873.768921,218.263489 861.621460,211.772446 855.201721,197.840744 
	C851.738281,190.324753 851.216003,182.142105 851.882690,173.899551 
	C852.267944,169.135544 852.427246,164.353394 852.702637,159.580246 
	C852.796814,157.947952 852.934814,156.318176 853.335449,154.242157 
	C854.020752,153.126450 854.423523,152.455872 854.826233,151.785278 
	C854.439697,151.616867 854.053101,151.448471 853.666565,151.280060 
	C853.459839,152.199249 853.253113,153.118439 853.046448,154.037659 
	C850.936890,155.937592 848.827393,157.837540 846.068787,159.937164 
	C843.537964,161.498932 841.656128,162.860992 839.016296,164.771744 
	C839.016296,160.803970 839.189819,157.699249 838.968201,154.622986 
	C838.739197,151.444321 838.126343,148.293320 837.364868,145.063995 
	C836.628052,144.991013 836.207764,144.984238 835.787476,144.977478 
M874.084961,206.423752 
	C882.631287,211.447449 891.752014,212.765915 901.551636,211.413589 
	C908.694763,210.427856 914.918274,205.026932 923.433228,211.865891 
	C931.506287,218.349960 942.723145,214.321762 952.410400,211.490814 
	C953.432800,211.192032 954.649475,209.443451 954.690552,208.327576 
	C954.785278,205.752197 954.594421,203.035507 953.844177,200.582672 
	C950.704224,190.316681 952.332642,179.940170 952.951538,169.620789 
	C953.762207,156.102264 955.371704,142.623459 955.893982,129.098846 
	C956.215637,120.768768 952.736023,113.129814 946.717529,107.479507 
	C938.514526,99.778305 928.006165,96.589394 916.981567,96.114906 
	C905.810303,95.634102 894.685486,95.481346 883.583252,98.716049 
	C873.919312,101.531700 868.277527,105.194847 867.218445,114.842537 
	C866.581543,120.644798 868.002747,126.763535 869.114136,132.623398 
	C869.569763,135.025223 871.646973,137.119492 873.326843,139.921310 
	C873.098816,140.204590 872.421997,141.355728 871.465210,142.183136 
	C865.708740,147.161148 862.739319,153.924667 861.363098,160.940689 
	C859.979553,167.993851 859.421387,175.509659 860.245850,182.620499 
	C861.323730,191.917831 864.049683,201.054321 874.084961,206.423752 
M765.868835,108.337746 
	C766.245178,115.931129 766.446350,123.538155 767.036804,131.114853 
	C768.051941,144.140945 771.287842,156.899277 769.113586,170.274017 
	C767.129456,182.479187 766.942383,194.976532 765.930359,207.761032 
	C775.399780,210.611053 785.336792,211.617401 795.769226,209.029907 
	C811.568054,205.111404 814.159607,191.238235 812.846436,179.907440 
	C812.041260,172.959808 810.926575,166.036957 810.428223,159.068848 
	C810.112244,154.650894 810.561096,150.161499 810.904053,145.722458 
	C811.021179,144.205643 811.411499,142.212997 812.441589,141.343369 
	C819.743347,135.178574 828.201599,135.058090 837.068298,136.940216 
	C842.372742,138.066193 845.383362,141.073792 845.550598,147.959702 
	C847.400757,145.745544 848.449097,144.918060 848.935364,143.837631 
	C851.514709,138.107300 853.778748,132.230408 856.481934,126.561630 
	C860.242004,118.676682 857.676819,111.344879 852.342285,106.330292 
	C842.935730,97.487923 831.258362,94.125298 818.390076,98.503975 
	C815.373230,99.530533 812.614197,101.314682 809.967346,102.635139 
	C807.447632,101.005013 805.197021,99.393311 802.804626,98.030525 
	C795.670593,93.966629 787.773499,95.783562 780.282471,95.793968 
	C771.606262,95.806015 767.144470,100.103897 765.868835,108.337746 
z"/>
<path fill="#684195" opacity="1.000000" stroke="none" 
	d="
M552.040344,102.965378 
	C552.040344,102.965378 552.521179,103.070229 553.036621,103.315033 
	C558.097717,105.015396 562.704468,106.307228 567.171082,107.974602 
	C571.278381,109.507858 575.234741,111.445312 579.244263,113.546120 
	C581.771667,117.016548 584.312439,120.145576 586.914490,123.612946 
	C588.905579,127.082954 590.835266,130.214630 592.819763,133.714783 
	C594.570312,141.021729 596.266174,147.960190 597.919067,155.281250 
	C597.411377,157.420425 596.767944,159.154327 596.541199,160.941116 
	C596.373352,162.264023 596.747498,163.655701 596.880249,165.016754 
	C596.265381,173.381180 592.015381,180.287720 586.959106,186.378098 
	C580.101318,194.638474 571.879578,201.419983 560.992249,204.119354 
	C546.215637,207.782990 532.172241,206.427551 518.958496,198.513428 
	C507.886810,191.882339 500.417938,182.263000 497.459900,169.869537 
	C495.823608,163.013702 496.006409,155.653076 495.924591,148.513626 
	C495.805176,138.092087 500.116272,129.189651 506.807159,121.474113 
	C516.408569,110.402382 528.345337,103.985886 543.323547,103.923187 
	C545.587769,103.913719 547.849548,103.348976 550.801514,103.008278 
	C551.673828,102.972115 551.857056,102.968750 552.040344,102.965378 
M546.484192,116.042389 
	C532.586182,117.019661 521.225403,122.373863 513.786438,134.723236 
	C507.368195,145.378082 505.559174,156.868423 510.496826,168.145386 
	C517.931885,185.126099 531.413513,193.842758 551.000549,192.058121 
	C578.248230,189.575470 592.808777,158.327377 579.264160,135.420822 
	C572.093506,123.293854 561.077148,117.433830 546.484192,116.042389 
z"/>
<path fill="#684195" opacity="1.000000" stroke="none" 
	d="
M697.992859,102.963196 
	C710.798950,103.928276 723.300781,105.482803 733.962708,113.934288 
	C744.458435,122.254089 751.266357,132.579559 753.992126,145.699295 
	C758.760925,168.652756 745.359680,191.364990 725.903442,201.016861 
	C718.444641,204.717026 710.293640,206.037415 701.887695,205.945404 
	C686.791138,205.780182 674.106689,200.108032 664.401733,188.772141 
	C660.130859,183.783493 657.407043,177.470352 654.242981,171.273315 
	C654.215210,170.156784 653.925293,169.525467 653.635376,168.894165 
	C653.751953,168.514389 653.868530,168.134613 653.864502,167.063904 
	C653.154480,162.484100 652.565125,158.595215 652.048584,154.264648 
	C653.760681,146.892059 655.400085,139.961121 657.212402,132.735291 
	C658.978333,129.447556 660.571289,126.454704 662.437134,123.245178 
	C665.432739,120.029312 668.155457,117.030113 671.224487,113.943100 
	C680.378235,110.224579 689.185547,106.593887 697.992859,102.963196 
M665.022766,158.154053 
	C666.696045,163.318909 667.645325,168.871689 670.168579,173.581131 
	C680.812683,193.447418 707.574585,198.259476 724.404358,186.031067 
	C744.508301,171.423676 747.149597,146.563782 730.537048,128.243561 
	C721.869263,118.684921 710.155762,114.168930 697.646729,116.618553 
	C675.810852,120.894638 663.668701,136.962234 665.022766,158.154053 
z"/>
<path fill="#7E84BB" opacity="1.000000" stroke="none" 
	d="
M657.039429,133.030182 
	C655.400085,139.961121 653.760681,146.892059 651.808716,153.943573 
	C649.363892,150.812424 647.321960,147.493912 645.014099,144.371918 
	C644.609741,143.824936 643.088867,144.103241 642.083679,144.000397 
	C639.923584,139.250259 635.116272,138.179443 630.981323,137.287109 
	C621.687256,135.281403 612.923523,136.771240 605.611328,144.609100 
	C602.725586,148.225784 600.343811,151.562225 597.962036,154.898651 
	C596.266174,147.960190 594.570312,141.021729 593.113403,133.489471 
	C610.874268,115.694595 635.547058,113.319710 654.393494,131.762360 
	C655.055298,132.409988 656.147705,132.617554 657.039429,133.030182 
z"/>
<path fill="#9099CD" opacity="1.000000" stroke="none" 
	d="
M657.212402,132.735291 
	C656.147705,132.617554 655.055298,132.409988 654.393494,131.762360 
	C635.547058,113.319710 610.874268,115.694595 593.058594,133.120972 
	C590.835266,130.214630 588.905579,127.082954 587.230957,123.446800 
	C594.244141,116.764595 602.323364,113.021919 610.918091,110.229317 
	C611.994263,109.807617 613.070435,109.385918 614.931396,108.882507 
	C621.758484,108.536194 627.800781,108.271591 633.843079,108.006989 
	C635.041077,108.680267 636.239014,109.353539 638.100830,110.269348 
	C647.564087,113.022430 655.584473,116.940666 662.164246,123.461853 
	C660.571289,126.454704 658.978333,129.447556 657.212402,132.735291 
z"/>
<path fill="#3F3076" opacity="1.000000" stroke="none" 
	d="
M697.749023,102.640266 
	C689.185547,106.593887 680.378235,110.224579 670.877563,113.825378 
	C660.495789,110.880676 650.807251,107.965858 641.118774,105.051048 
	C639.439392,101.377213 637.760010,97.703377 635.917297,93.672234 
	C640.495728,91.203102 645.417908,94.075417 650.283997,94.705101 
	C658.277466,95.739471 666.175537,97.490990 674.137878,98.792770 
	C681.911316,100.063652 689.714844,101.149979 697.749023,102.640266 
z"/>
<path fill="#403177" opacity="1.000000" stroke="none" 
	d="
M579.257629,113.204712 
	C575.234741,111.445312 571.278381,109.507858 567.171082,107.974602 
	C562.704468,106.307228 558.097717,105.015396 553.282654,103.316910 
	C557.050598,102.010925 561.046265,100.735100 565.135132,99.935318 
	C571.085266,98.771469 577.094482,97.896965 583.093567,96.999504 
	C588.346008,96.213737 593.631042,95.643646 598.879822,94.835999 
	C603.985779,94.050331 609.063965,93.083939 614.666199,92.107689 
	C612.212341,96.637543 610.181458,100.386452 607.660156,104.523544 
	C597.865601,107.676056 588.561646,110.440384 579.257629,113.204712 
z"/>
<path fill="#D9E5F6" opacity="1.000000" stroke="none" 
	d="
M579.244263,113.546120 
	C588.561646,110.440384 597.865601,107.676056 607.542480,104.865555 
	C608.978394,106.431213 606.035950,109.705032 610.506836,110.151398 
	C602.323364,113.021919 594.244141,116.764595 587.169556,123.108459 
	C584.312439,120.145576 581.771667,117.016548 579.244263,113.546120 
z"/>
<path fill="#D9E6F6" opacity="1.000000" stroke="none" 
	d="
M641.069275,105.464081 
	C650.807251,107.965858 660.495789,110.880676 670.531189,113.913208 
	C668.155457,117.030113 665.432739,120.029312 662.437134,123.245186 
	C655.584473,116.940666 647.564087,113.022430 638.450562,110.374382 
	C641.728394,110.523560 640.947510,107.918213 641.069275,105.464081 
z"/>
<path fill="#7E62A4" opacity="1.000000" stroke="none" 
	d="
M633.912964,107.638603 
	C627.800781,108.271591 621.758484,108.536194 615.284058,108.815186 
	C615.201843,103.308701 618.060852,98.544640 621.421326,98.476700 
	C628.552795,98.332550 631.511353,99.182854 633.912964,107.638603 
z"/>
<path fill="#4B4179" opacity="1.000000" stroke="none" 
	d="
M642.125916,144.341675 
	C643.088867,144.103241 644.609741,143.824936 645.014099,144.371918 
	C647.321960,147.493912 649.363892,150.812424 651.735962,154.385239 
	C652.565125,158.595215 653.154480,162.484100 653.825562,166.763092 
	C651.934021,163.552628 649.902649,159.982407 648.003418,156.343201 
	C645.992859,152.490646 644.107910,148.572464 642.125916,144.341675 
z"/>
<path fill="#473F76" opacity="1.000000" stroke="none" 
	d="
M597.919067,155.281250 
	C600.343811,151.562225 602.725586,148.225784 605.462891,144.921387 
	C602.971863,151.434341 600.125244,157.915268 597.079407,164.706482 
	C596.747498,163.655701 596.373352,162.264023 596.541199,160.941116 
	C596.767944,159.154327 597.411377,157.420425 597.919067,155.281250 
z"/>
<path fill="#3B2E61" opacity="1.000000" stroke="none" 
	d="
M837.681396,145.130203 
	C838.126343,148.293320 838.739197,151.444321 838.968201,154.622986 
	C839.189819,157.699249 839.016296,160.803970 839.016296,164.771744 
	C841.656128,162.860992 843.537964,161.498932 845.769165,160.095367 
	C843.680725,163.310822 841.242981,166.567780 838.466309,169.421906 
	C837.978760,161.056122 837.830078,153.093170 837.681396,145.130203 
z"/>
<path fill="#E2DCF4" opacity="1.000000" stroke="none" 
	d="
M48.669571,132.336319 
	C49.060215,142.794281 49.179527,153.512238 49.143829,164.602112 
	C48.791958,154.181473 48.595100,143.388885 48.669571,132.336319 
z"/>
<path fill="#DCD2F4" opacity="1.000000" stroke="none" 
	d="
M837.364868,145.063995 
	C837.830078,153.093170 837.978760,161.056122 838.138184,169.482788 
	C837.762634,168.377579 837.126160,166.823196 837.033936,165.237183 
	C836.656921,158.749802 836.446045,152.252777 835.980713,145.368378 
	C836.207764,144.984238 836.628052,144.991013 837.364868,145.063995 
z"/>
<path fill="#4B4179" opacity="1.000000" stroke="none" 
	d="
M653.412354,169.041214 
	C653.925293,169.525467 654.215210,170.156784 654.260010,170.903275 
	C653.739685,170.408401 653.464478,169.798340 653.412354,169.041214 
z"/>
<path fill="#403177" opacity="1.000000" stroke="none" 
	d="
M551.961670,102.749481 
	C551.857056,102.968750 551.673828,102.972115 551.216125,102.960472 
	C551.255432,102.808182 551.569153,102.670883 551.961670,102.749481 
z"/>
<path fill="#000000" opacity="1.000000" stroke="none" 
	d="
M150.160278,210.075912 
	C145.528992,206.770920 145.492844,202.777435 147.076462,198.158646 
	C148.069763,195.261520 148.380768,192.130493 149.143280,188.391464 
	C129.238937,200.814941 111.860359,204.323608 101.031883,185.690643 
	C100.628372,190.054214 100.540871,193.911499 99.851593,197.658066 
	C99.122330,201.622040 98.881218,206.431534 96.471977,209.119507 
	C94.032883,211.840805 89.238487,213.578217 85.410477,213.700378 
	C76.564529,213.982635 67.713509,214.293045 58.904991,211.269531 
	C49.027084,207.878952 49.910645,206.250443 51.253880,197.560410 
	C53.305103,184.290039 56.749420,171.237076 58.877815,157.975525 
	C59.695827,152.878677 58.614601,147.456619 58.235596,142.194473 
	C57.928692,137.933350 57.208969,133.699402 56.966343,129.436676 
	C56.262779,117.075623 55.729816,104.704956 55.079556,92.340714 
	C54.889294,88.723099 54.166199,85.098396 54.323475,81.504784 
	C54.671104,73.561737 60.833336,70.642242 67.078239,69.092484 
	C79.965797,65.894249 92.954567,65.238663 105.195259,71.873238 
	C107.098579,72.904861 109.203308,74.589149 109.986107,76.480263 
	C112.836296,83.365921 115.575310,90.351982 117.590996,97.515518 
	C120.381615,107.433075 122.467628,117.548386 124.881630,127.572685 
	C125.779221,131.299973 126.750923,135.009415 127.688820,138.726990 
	C128.222443,138.716827 128.756058,138.706665 129.289673,138.696518 
	C130.871017,132.913376 132.364487,127.104485 134.050797,121.352127 
	C138.455002,106.328346 141.982346,90.947281 147.741165,76.456551 
	C151.493256,67.015259 160.230820,64.657204 172.884583,67.486488 
	C183.116394,69.774254 192.778229,74.611137 203.565216,78.643326 
	C196.024963,84.802902 196.583694,92.463608 196.127441,99.392662 
	C195.457321,109.569519 195.581955,119.840355 196.047958,130.040085 
	C196.664597,143.537216 198.647568,157.001480 198.702515,170.485306 
	C198.745819,181.118057 197.643387,191.968002 195.196213,202.281662 
	C194.353226,205.834473 188.271957,209.459824 183.947556,210.566360 
	C177.268341,212.275497 170.042450,212.188187 163.047638,212.196228 
	C158.871658,212.201019 154.694199,210.933441 150.160278,210.075912 
M194.799225,188.749771 
	C194.873032,179.937714 194.974609,171.125671 194.975357,162.313614 
	C194.975433,161.480865 194.342194,160.648041 193.968277,158.913467 
	C193.969452,155.581284 194.220871,152.226685 193.924576,148.921173 
	C193.060440,139.280396 191.463959,129.678360 191.104492,120.025764 
	C190.605438,106.625206 191.323837,93.232826 195.965744,80.212112 
	C186.732697,74.778496 176.989853,71.700302 166.891937,70.181137 
	C159.623260,69.087616 151.805328,73.289749 149.734879,78.730743 
	C147.200455,85.391045 144.975922,92.194572 143.060608,99.059814 
	C139.208191,112.868340 135.779449,126.795776 131.853348,140.582291 
	C131.230515,142.769394 128.925766,144.477493 127.398621,146.407059 
	C126.863823,146.181992 126.329025,145.956940 125.794235,145.731873 
	C123.528282,136.430542 121.447548,127.079124 118.949600,117.840515 
	C115.811638,106.234802 112.774879,94.564171 108.757515,83.254356 
	C107.368210,79.343140 103.788582,74.639122 100.148804,73.391518 
	C89.057442,69.589706 77.419296,70.020569 66.041145,73.051384 
	C58.349518,75.100204 57.908840,75.736122 58.061840,83.997208 
	C58.249012,94.103661 58.499489,104.215286 59.054298,114.306442 
	C59.451584,121.532570 60.582638,128.716721 61.042465,135.941483 
	C61.546822,143.865799 62.743759,151.962982 61.689598,159.719940 
	C60.003719,172.125366 56.730396,184.316742 54.087254,196.589783 
	C52.590534,203.539566 54.009041,207.138870 60.839390,208.173508 
	C69.589691,209.498978 78.563622,209.519821 87.449539,209.707245 
	C92.029724,209.803833 94.432861,206.843643 95.009010,202.355804 
	C95.990234,194.712555 97.674454,187.093750 97.889175,179.431778 
	C98.318146,164.124664 98.279861,148.771408 93.543098,133.895828 
	C93.183708,132.767181 93.991333,131.266953 94.256493,129.939438 
	C94.703003,129.927490 95.149506,129.915543 95.596016,129.903595 
	C96.384918,131.442490 97.349075,132.917679 97.935364,134.530243 
	C103.272835,149.210617 105.478142,164.371201 105.049011,179.981445 
	C104.814819,188.500610 108.378845,192.901688 116.760773,193.982635 
	C121.388977,194.579483 126.304085,194.690506 130.850281,193.798920 
	C138.740555,192.251526 145.423431,188.397766 146.945938,179.552841 
	C149.146912,166.766281 150.981552,153.916672 153.775604,140.746231 
	C155.121719,138.032883 151.999878,133.870346 157.153748,131.238632 
	C157.153748,139.080673 157.153748,145.972427 157.060989,153.748444 
	C156.716263,157.324554 156.440155,160.908951 156.010101,164.474777 
	C155.422943,169.343140 154.877731,174.225479 154.025635,179.050812 
	C152.865555,185.620148 151.457153,192.146378 150.110107,198.681778 
	C148.780151,205.134354 151.558594,208.642349 158.628708,208.931488 
	C163.768921,209.141693 168.924698,209.040848 174.072464,208.982941 
	C187.006561,208.837448 194.428192,204.108826 194.799225,188.749771 
z"/>
<path fill="#000000" opacity="1.000000" stroke="none" 
	d="
M319.985504,172.952133 
	C319.655731,181.836411 319.485992,190.730438 318.944519,199.601807 
	C318.526855,206.445023 313.598297,210.401657 307.970154,212.293900 
	C298.184235,215.584015 288.007385,216.419571 277.889862,212.970749 
	C271.030029,210.632385 268.398315,205.140533 269.689789,198.078491 
	C271.536102,187.982040 273.573395,177.776550 273.829346,167.574997 
	C274.070312,157.970093 271.952179,148.322891 271.152405,138.671051 
	C269.949860,124.158546 271.748169,108.913574 286.295319,100.620209 
	C296.611481,94.738930 307.993286,94.683029 319.422852,97.246910 
	C319.200531,99.485451 318.994843,101.556496 318.783417,103.685486 
	C323.445190,102.285553 327.374664,100.578995 331.463013,100.006073 
	C337.044647,99.223900 342.781555,98.775032 348.389984,99.138504 
	C357.108643,99.703552 361.830078,105.709282 365.298584,113.095245 
	C370.665070,124.522820 371.493073,136.763947 372.107758,149.859528 
	C372.135834,151.112564 372.176270,151.571060 372.216705,152.029556 
	C372.186707,155.063171 372.156708,158.096771 372.091583,162.013397 
	C372.102844,164.915329 372.149200,166.934280 372.195587,168.953217 
	C372.192688,181.013138 370.441620,193.371674 377.898041,205.070740 
	C374.095428,206.674500 369.793793,208.937057 365.225861,210.320068 
	C356.249786,213.037689 347.216614,215.687988 337.614227,212.966888 
	C330.912140,211.067673 326.014954,205.666290 326.075500,198.640793 
	C326.225677,181.205414 326.708557,163.773163 326.959198,146.338242 
	C327.035156,141.052505 325.459808,139.756332 319.966736,140.963547 
	C319.155151,150.682938 319.051636,160.087936 319.060211,169.492828 
	C319.061249,170.646225 319.662415,171.799057 319.985504,172.952133 
M329.969086,201.904831 
	C331.555603,206.034744 334.225128,208.827286 338.904266,209.131958 
	C343.317780,209.419357 347.784546,210.267288 352.133209,209.859512 
	C359.164856,209.200134 365.995636,207.356674 371.661621,203.917923 
	C370.622620,198.112747 369.706116,192.992081 368.820221,187.036942 
	C368.543396,185.286743 368.033661,183.537476 368.026581,181.786179 
	C367.969147,167.623169 368.036774,153.459610 367.969238,139.296692 
	C367.962128,137.800095 367.330231,136.306503 366.949890,133.964310 
	C365.212616,127.052086 363.974731,119.961906 361.593414,113.279175 
	C359.345459,106.970665 353.937927,103.759514 347.313232,103.022484 
	C343.840637,102.636139 340.283020,102.289879 336.831818,102.625351 
	C332.848419,103.012566 328.894135,103.999352 325.010895,105.038589 
	C320.354980,106.284622 318.379913,109.701958 318.841400,114.867928 
	C314.205048,111.658180 313.371979,107.840408 314.292023,103.211655 
	C314.479279,102.269531 313.379486,100.136993 312.855103,100.131042 
	C306.904114,100.063499 300.528351,98.977348 295.075378,100.710052 
	C279.024048,105.810425 275.014008,112.959557 274.247955,129.153458 
	C273.771576,139.223572 276.419373,149.400955 276.858917,159.565063 
	C277.421570,172.575684 277.292084,185.553925 273.441620,198.322357 
	C271.872925,203.524200 271.440643,206.902298 279.435944,209.344101 
	C289.574799,212.440536 299.296814,210.757416 308.996552,208.378326 
	C311.047607,207.875259 313.616425,204.677841 313.869507,202.482437 
	C314.958771,193.033310 315.274200,183.494980 316.007629,173.057526 
	C316.041656,162.039505 316.075653,151.021500 316.761230,139.710449 
	C318.962189,137.183105 321.460602,135.168930 325.035736,136.587814 
	C328.955505,138.143478 331.208527,141.013397 331.052124,145.445541 
	C330.692841,155.625916 330.350189,165.806900 329.172211,176.307266 
	C329.120911,182.111389 328.965149,187.917358 329.067200,193.718796 
	C329.111084,196.215149 329.689453,198.702118 329.969086,201.904831 
z"/>
<path fill="#000000" opacity="1.000000" stroke="none" 
	d="
M256.780273,132.531525 
	C258.217896,146.228531 260.066803,159.485870 260.626740,172.797440 
	C261.026855,182.309143 259.830902,191.903915 259.092682,201.441925 
	C258.606476,207.723251 253.747299,210.549667 248.586807,211.533157 
	C237.777313,213.593262 226.891785,215.729340 215.839386,211.926254 
	C209.759415,209.834167 207.396805,206.293304 208.486969,200.121429 
	C210.228867,190.259949 212.446701,180.332504 212.655670,170.394928 
	C212.842773,161.497269 210.470993,152.561798 209.447464,143.617920 
	C208.519897,135.512695 205.941772,127.723579 207.716705,119.154297 
	C209.881104,108.704636 216.670532,103.643364 225.521240,99.976494 
	C227.278488,99.248466 229.072189,98.608452 231.078781,97.262299 
	C220.039658,94.368996 212.627792,87.702644 210.276062,76.977119 
	C208.734406,69.946106 209.788177,62.453911 214.919998,56.751751 
	C224.715347,45.867779 237.918732,44.443813 249.194183,54.047810 
	C255.974915,59.823391 259.682037,67.690025 257.221680,77.366661 
	C254.857300,86.665749 247.817825,91.375404 239.097061,96.103996 
	C248.920959,97.599663 257.594025,98.920113 266.594299,100.290382 
	C260.361816,110.631180 253.792526,119.934013 256.780273,132.531525 
M255.963394,199.136383 
	C256.320801,189.197861 256.703461,179.260056 256.989105,169.319458 
	C257.012726,168.497528 256.379028,167.656708 255.978638,165.934006 
	C255.787277,162.813629 255.761581,159.672440 255.372559,156.576904 
	C254.329559,148.277374 252.931992,140.018646 252.044144,131.704315 
	C250.911636,121.098885 254.768326,111.857307 261.022797,102.929268 
	C258.967041,102.563919 257.261841,102.061638 255.538620,101.989548 
	C248.560028,101.697632 241.577103,101.470070 234.593521,101.346413 
	C225.323547,101.182251 212.514999,109.660110 211.294815,117.884781 
	C210.359756,124.187492 210.950668,130.832245 211.661179,137.236313 
	C212.725967,146.833572 214.830902,156.316467 215.867188,165.915604 
	C217.032379,176.709106 214.755066,187.214111 211.994385,197.626450 
	C209.947983,205.344772 212.290009,208.658173 220.451279,209.028809 
	C228.308487,209.385651 236.222260,209.388962 244.065247,208.862808 
	C249.544296,208.495239 254.731842,206.692459 255.963394,199.136383 
M243.383163,53.721245 
	C237.491135,53.371471 230.981766,51.261288 225.844193,53.062912 
	C216.976685,56.172527 212.158234,62.964397 212.909225,73.419212 
	C213.513214,81.827576 218.765442,88.653923 227.802078,91.350304 
	C236.140610,93.838394 245.726547,90.652771 250.048492,83.957855 
	C258.329041,71.130943 253.566498,62.709446 243.383163,53.721245 
z"/>
<path fill="#000000" opacity="1.000000" stroke="none" 
	d="
M484.014679,192.996277 
	C484.042419,196.032623 484.070190,199.068954 483.784241,202.749069 
	C482.960052,204.911774 482.449585,206.430695 481.939087,207.949631 
	C481.939087,207.949631 481.964264,208.004303 481.731049,208.073242 
	C481.312469,208.417297 481.127106,208.692398 480.941711,208.967499 
	C474.150421,212.197708 466.906342,214.584579 459.500488,213.808151 
	C453.301880,213.158310 446.219147,213.487396 441.800262,206.993225 
	C441.160950,206.053696 437.681427,206.649841 435.654480,207.125076 
	C429.307373,208.613205 423.066376,211.449753 416.706543,211.687912 
	C412.089905,211.860794 406.423553,209.858154 402.832306,206.884644 
	C390.207214,196.431244 383.089844,182.899689 383.038208,166.052017 
	C383.018005,159.459824 381.699768,152.831024 382.095947,146.286911 
	C382.830139,134.160172 384.563843,122.065857 392.174530,111.951027 
	C398.364716,103.724121 406.287079,99.080925 417.189636,98.870758 
	C424.690735,98.726143 431.503723,99.348946 438.513611,104.276016 
	C438.730652,101.430511 439.002441,99.411560 439.019104,97.390511 
	C439.106506,86.781708 442.066986,77.440887 449.864166,69.743874 
	C454.720551,64.949821 460.593170,63.855591 466.592072,64.863815 
	C473.771698,66.070488 480.735687,68.560242 487.785797,70.492302 
	C485.692627,76.810074 483.569153,82.043655 482.262543,87.473793 
	C480.778809,93.639862 479.594299,99.943748 479.038452,106.254555 
	C477.548828,123.166656 476.531830,140.121841 478.952637,157.046326 
	C479.809723,163.038452 481.242371,168.955490 481.933502,174.961868 
	C482.519287,180.052322 482.415039,185.222198 482.838257,190.982544 
	C483.378479,192.070862 483.696564,192.533569 484.014679,192.996277 
M478.965912,186.099930 
	C477.564026,174.030304 476.162170,161.960678 474.802979,149.054657 
	C474.521484,147.970657 473.976685,146.881027 473.999725,145.803528 
	C474.204224,136.242371 474.509247,126.683372 475.013184,116.211555 
	C475.683929,108.886971 476.055237,101.518478 477.120728,94.251778 
	C477.964508,88.497063 479.259644,82.730408 481.137787,77.236900 
	C482.148285,74.281174 481.742737,72.990326 479.103760,71.991951 
	C473.541077,69.887535 468.259857,68.132050 461.809875,68.618500 
	C455.090363,69.125267 450.800018,71.557236 447.495056,76.805420 
	C443.256683,83.535889 442.018524,91.048035 442.004639,98.846619 
	C441.995667,103.882492 442.002960,108.918396 442.002960,113.753006 
	C439.068726,111.006477 436.454376,108.362495 433.634491,105.959755 
	C427.216461,100.491211 419.407715,102.542595 412.337616,103.064537 
	C399.345428,104.023666 392.753754,113.248932 389.054443,124.623398 
	C385.110718,136.749283 384.988403,149.175125 385.646332,161.944458 
	C386.344543,175.496552 389.093842,187.826187 398.449768,197.714294 
	C402.451538,201.943649 407.775269,206.610428 413.114166,207.539566 
	C424.702148,209.556244 435.840759,206.996445 443.822052,195.956528 
	C443.964600,198.794174 444.070374,200.899948 444.030273,203.723999 
	C446.040344,205.468430 447.956390,208.566284 450.077454,208.713684 
	C457.654480,209.240219 465.356903,209.255127 472.890228,208.396301 
	C475.429382,208.106827 479.265564,204.884247 479.608124,202.572372 
	C480.355316,197.529785 479.240540,192.211288 478.965912,186.099930 
z"/>
<path fill="#000000" opacity="1.000000" stroke="none" 
	d="
M204.977570,92.458542 
	C205.575714,91.673615 206.580399,90.865356 206.638443,90.928429 
	C208.408401,92.851341 210.085327,94.859894 211.744370,96.816956 
	C209.276978,99.095207 206.929443,101.262787 203.805710,104.147049 
	C204.198349,100.243187 204.570587,96.542274 204.977570,92.458542 
z"/>
<path fill="#B8AED1" opacity="1.000000" stroke="none" 
	d="
M319.981201,172.486450 
	C319.662415,171.799057 319.061249,170.646225 319.060211,169.492828 
	C319.051636,160.087936 319.155151,150.682938 319.667480,141.187042 
	C320.065918,151.404327 320.021423,161.712555 319.981201,172.486450 
z"/>
<path fill="#352663" opacity="1.000000" stroke="none" 
	d="
M484.239838,192.697632 
	C483.696564,192.533569 483.378479,192.070862 483.030090,191.312531 
	C483.507996,189.570663 484.016113,188.124420 484.524231,186.678177 
	C484.692474,186.675644 484.860687,186.673111 485.028931,186.670578 
	C484.840942,188.580048 484.652985,190.489517 484.239838,192.697632 
z"/>
<path fill="#352663" opacity="1.000000" stroke="none" 
	d="
M482.265381,207.878418 
	C482.449585,206.430695 482.960052,204.911774 483.758179,203.203659 
	C483.561066,204.612045 483.076355,206.209625 482.265381,207.878418 
z"/>
<path fill="#392D62" opacity="1.000000" stroke="none" 
	d="
M372.381592,168.645355 
	C372.149200,166.934280 372.102844,164.915329 372.123840,162.468414 
	C372.316681,164.139450 372.442139,166.238464 372.381592,168.645355 
z"/>
<path fill="#392D62" opacity="1.000000" stroke="none" 
	d="
M372.450684,151.951721 
	C372.176270,151.571060 372.135834,151.112564 372.154236,150.312531 
	C372.370209,150.605316 372.527435,151.239609 372.450684,151.951721 
z"/>
<path fill="#352663" opacity="1.000000" stroke="none" 
	d="
M481.148102,208.835693 
	C481.127106,208.692398 481.312469,208.417297 481.731506,208.043610 
	C481.816101,208.241837 481.612518,208.494781 481.148102,208.835693 
z"/>
<path fill="#000000" opacity="1.000000" stroke="none" 
	d="
M873.785645,206.197830 
	C864.049683,201.054321 861.323730,191.917831 860.245850,182.620499 
	C859.421387,175.509659 859.979553,167.993851 861.363098,160.940689 
	C862.739319,153.924667 865.708740,147.161148 871.465210,142.183136 
	C872.421997,141.355728 873.098816,140.204590 873.326843,139.921310 
	C871.646973,137.119492 869.569763,135.025223 869.114136,132.623398 
	C868.002747,126.763535 866.581543,120.644798 867.218445,114.842537 
	C868.277527,105.194847 873.919312,101.531700 883.583252,98.716049 
	C894.685486,95.481346 905.810303,95.634102 916.981567,96.114906 
	C928.006165,96.589394 938.514526,99.778305 946.717529,107.479507 
	C952.736023,113.129814 956.215637,120.768768 955.893982,129.098846 
	C955.371704,142.623459 953.762207,156.102264 952.951538,169.620789 
	C952.332642,179.940170 950.704224,190.316681 953.844177,200.582672 
	C954.594421,203.035507 954.785278,205.752197 954.690552,208.327576 
	C954.649475,209.443451 953.432800,211.192032 952.410400,211.490814 
	C942.723145,214.321762 931.506287,218.349960 923.433228,211.865891 
	C914.918274,205.026932 908.694763,210.427856 901.551636,211.413589 
	C891.752014,212.765915 882.631287,211.447449 873.785645,206.197830 
M919.005005,203.284271 
	C921.271240,205.195618 923.408508,208.535400 925.827454,208.753708 
	C933.450439,209.441711 941.180603,209.019318 948.864136,208.823044 
	C949.540771,208.805756 950.729858,207.303055 950.730469,206.489624 
	C950.732056,204.234802 950.610168,201.845352 949.866699,199.746582 
	C945.399597,187.136246 949.061646,174.565643 950.241455,162.093506 
	C951.408936,149.751419 953.922058,137.450684 951.829956,125.095474 
	C950.160339,115.235077 944.607666,107.543854 934.865234,104.131348 
	C929.220459,102.154114 923.187378,100.746399 917.236816,100.293648 
	C904.926086,99.356972 892.545715,99.417709 880.545227,103.026237 
	C875.278748,104.609856 870.961548,107.788795 870.229065,113.613815 
	C869.409729,120.129433 869.782593,126.667114 873.093628,132.848572 
	C883.858887,126.699509 894.514099,120.903381 907.512146,123.025604 
	C918.194458,124.769730 925.241089,131.969177 923.288940,143.938324 
	C912.467773,137.227966 900.906982,133.851639 888.335754,137.015823 
	C878.532837,139.483246 870.591064,144.443848 866.586060,154.603287 
	C863.091858,163.466797 862.455383,172.614426 863.139221,181.787415 
	C864.177124,195.708145 870.939697,203.435013 884.728943,206.797699 
	C896.802612,209.742020 908.958740,209.661606 918.954834,198.851593 
	C918.954834,200.634476 918.954834,201.589127 919.005005,203.284271 
M908.108582,133.689667 
	C911.549072,134.412720 914.989563,135.135788 918.760925,135.928375 
	C916.913574,130.131439 913.491028,127.393440 904.226685,126.468758 
	C896.350342,125.682617 888.427063,126.712349 881.882263,133.250076 
	C890.832520,133.250076 899.143127,133.250076 908.108582,133.689667 
z"/>
<path fill="#000000" opacity="1.000000" stroke="none" 
	d="
M765.649292,107.980881 
	C767.144470,100.103897 771.606262,95.806015 780.282471,95.793968 
	C787.773499,95.783562 795.670593,93.966629 802.804626,98.030525 
	C805.197021,99.393311 807.447632,101.005013 809.967346,102.635139 
	C812.614197,101.314682 815.373230,99.530533 818.390076,98.503975 
	C831.258362,94.125298 842.935730,97.487923 852.342285,106.330292 
	C857.676819,111.344879 860.242004,118.676682 856.481934,126.561630 
	C853.778748,132.230408 851.514709,138.107300 848.935364,143.837631 
	C848.449097,144.918060 847.400757,145.745544 845.550598,147.959702 
	C845.383362,141.073792 842.372742,138.066193 837.068298,136.940216 
	C828.201599,135.058090 819.743347,135.178574 812.441589,141.343369 
	C811.411499,142.212997 811.021179,144.205643 810.904053,145.722458 
	C810.561096,150.161499 810.112244,154.650894 810.428223,159.068848 
	C810.926575,166.036957 812.041260,172.959808 812.846436,179.907440 
	C814.159607,191.238235 811.568054,205.111404 795.769226,209.029907 
	C785.336792,211.617401 775.399780,210.611053 765.930359,207.761032 
	C766.942383,194.976532 767.129456,182.479187 769.113586,170.274017 
	C771.287842,156.899277 768.051941,144.140945 767.036804,131.114853 
	C766.446350,123.538155 766.245178,115.931129 765.649292,107.980881 
M807.178528,195.435562 
	C807.777588,192.427063 808.776306,189.431213 808.872070,186.406784 
	C808.985657,182.817978 808.289917,179.207108 808.001465,175.601273 
	C807.332458,167.239044 806.885620,158.853409 805.969360,150.518982 
	C805.511841,146.357666 809.224548,137.818832 813.581787,136.126892 
	C825.191223,131.618988 836.449219,130.611984 848.482971,138.587051 
	C850.390564,132.975754 853.211853,127.762505 853.672241,122.348488 
	C854.042114,117.998169 852.801880,112.367699 850.099609,109.111771 
	C841.687134,98.976059 822.349426,98.230362 811.850647,106.661240 
	C809.296997,108.711929 807.168640,109.162819 805.578613,105.217186 
	C804.892212,103.513924 802.928955,101.852440 801.156799,101.141159 
	C793.356873,98.010529 785.155884,99.402985 777.197205,100.131386 
	C770.517151,100.742760 768.752991,103.298904 769.067932,109.963112 
	C769.503235,119.175049 770.468933,128.360580 771.035217,137.568008 
	C771.780212,149.681915 772.968201,161.814102 772.809875,173.923309 
	C772.688293,183.221848 770.659058,192.485947 769.802246,201.795197 
	C769.680969,203.112900 771.263550,205.700287 772.288696,205.826752 
	C778.148438,206.549713 784.162292,207.483505 789.962402,206.855087 
	C797.006409,206.091888 803.584473,203.371490 807.178528,195.435562 
z"/>
<path fill="#000000" opacity="1.000000" stroke="none" 
	d="
M853.030884,154.025635 
	C853.253113,153.118439 853.459839,152.199249 853.666565,151.280060 
	C854.053101,151.448471 854.439697,151.616867 854.826233,151.785278 
	C854.423523,152.455872 854.020752,153.126450 853.301147,153.893768 
	C852.984314,153.990479 853.015259,154.013611 853.030884,154.025635 
z"/>
<path fill="#7D5BA7" opacity="1.000000" stroke="none" 
	d="
M546.921753,116.051468 
	C561.077148,117.433830 572.093506,123.293854 579.264160,135.420822 
	C592.808777,158.327377 578.248230,189.575470 551.000549,192.058121 
	C531.413513,193.842758 517.931885,185.126099 510.496826,168.145386 
	C505.559174,156.868423 507.368195,145.378082 513.786438,134.723236 
	C521.225403,122.373863 532.586182,117.019661 546.921753,116.051468 
M538.902344,131.926025 
	C535.764893,126.077682 529.430908,124.421089 526.768066,129.118790 
	C525.502319,131.351807 525.559143,135.226822 526.651733,137.607697 
	C527.452820,139.353195 531.158447,141.082520 533.140381,140.684113 
	C536.811218,139.946198 538.927307,136.775009 538.902344,131.926025 
z"/>
<path fill="#7D5BA7" opacity="1.000000" stroke="none" 
	d="
M665.010620,157.696091 
	C663.668701,136.962234 675.810852,120.894638 697.646729,116.618553 
	C710.155762,114.168930 721.869263,118.684921 730.537048,128.243561 
	C747.149597,146.563782 744.508301,171.423676 724.404358,186.031067 
	C707.574585,198.259476 680.812683,193.447418 670.168579,173.581131 
	C667.645325,168.871689 666.696045,163.318909 665.010620,157.696091 
M695.572144,134.897324 
	C695.448364,129.025528 692.691528,126.141129 687.812866,126.779015 
	C683.604736,127.329239 680.792358,131.026230 682.210144,135.275269 
	C682.942627,137.470352 685.141174,140.176682 687.187866,140.716583 
	C691.000916,141.722443 693.358337,138.647263 695.572144,134.897324 
z"/>
<path fill="#7E5DA6" opacity="1.000000" stroke="none" 
	d="
M152.972504,141.093964 
	C150.981552,153.916672 149.146912,166.766281 146.945938,179.552841 
	C145.423431,188.397766 138.740555,192.251526 130.850281,193.798920 
	C126.304085,194.690506 121.388977,194.579483 116.760773,193.982635 
	C108.378845,192.901688 104.814819,188.500610 105.049011,179.981445 
	C105.478142,164.371201 103.272835,149.210617 97.935364,134.530243 
	C97.349075,132.917679 96.384918,131.442490 95.596016,129.903595 
	C95.149506,129.915543 94.703003,129.927490 94.256493,129.939438 
	C93.991333,131.266953 93.183708,132.767181 93.543098,133.895828 
	C98.279861,148.771408 98.318146,164.124664 97.889175,179.431778 
	C97.674454,187.093750 95.990234,194.712555 95.009010,202.355804 
	C94.432861,206.843643 92.029724,209.803833 87.449539,209.707245 
	C78.563622,209.519821 69.589691,209.498978 60.839390,208.173508 
	C54.009041,207.138870 52.590534,203.539566 54.087254,196.589783 
	C56.730396,184.316742 60.003719,172.125366 61.689598,159.719940 
	C62.743759,151.962982 61.546822,143.865799 61.042465,135.941483 
	C60.582638,128.716721 59.451584,121.532570 59.054298,114.306442 
	C58.499489,104.215286 58.249012,94.103661 58.061840,83.997208 
	C57.908840,75.736122 58.349518,75.100204 66.041145,73.051384 
	C77.419296,70.020569 89.057442,69.589706 100.148804,73.391518 
	C103.788582,74.639122 107.368210,79.343140 108.757515,83.254356 
	C112.774879,94.564171 115.811638,106.234802 118.949600,117.840515 
	C121.447548,127.079124 123.528282,136.430542 125.794235,145.731873 
	C126.329025,145.956940 126.863823,146.181992 127.398621,146.407059 
	C128.925766,144.477493 131.230515,142.769394 131.853348,140.582291 
	C135.779449,126.795776 139.208191,112.868340 143.060608,99.059814 
	C144.975922,92.194572 147.200455,85.391045 149.734879,78.730743 
	C151.805328,73.289749 159.623260,69.087616 166.891937,70.181137 
	C176.989853,71.700302 186.732697,74.778496 195.965744,80.212112 
	C191.323837,93.232826 190.605438,106.625206 191.104492,120.025764 
	C191.463959,129.678360 193.060440,139.280396 193.924576,148.921173 
	C194.220871,152.226685 193.969452,155.581284 193.651474,159.585953 
	C193.558487,164.696564 193.883896,169.132492 193.979660,173.573380 
	C194.091827,178.774902 194.004059,183.980728 194.003021,189.184692 
	C194.428192,204.108826 187.006561,208.837448 174.072464,208.982941 
	C168.924698,209.040848 163.768921,209.141693 158.628708,208.931488 
	C151.558594,208.642349 148.780151,205.134354 150.110107,198.681778 
	C151.457153,192.146378 152.865555,185.620148 154.025635,179.050812 
	C154.877731,174.225479 155.422943,169.343140 156.010101,164.474777 
	C156.440155,160.908951 156.716263,157.324554 157.391541,153.012146 
	C157.722076,145.242401 157.722076,138.208969 157.722076,131.302994 
	C154.517029,130.285324 152.790405,130.820114 152.932434,134.209106 
	C153.028473,136.500595 152.964767,138.798782 152.972504,141.093964 
z"/>
<path fill="#F6E8FF" opacity="1.000000" stroke="none" 
	d="
M153.374054,140.920105 
	C152.964767,138.798782 153.028473,136.500595 152.932434,134.209106 
	C152.790405,130.820114 154.517029,130.285324 157.722076,131.302994 
	C157.722076,138.208969 157.722076,145.242401 157.437912,152.570007 
	C157.153748,145.972427 157.153748,139.080673 157.153748,131.238632 
	C151.999878,133.870346 155.121719,138.032883 153.374054,140.920105 
z"/>
<path fill="#E9DFF6" opacity="1.000000" stroke="none" 
	d="
M194.401123,188.967224 
	C194.004059,183.980728 194.091827,178.774902 193.979660,173.573380 
	C193.883896,169.132492 193.558487,164.696564 193.668823,160.036850 
	C194.342194,160.648041 194.975433,161.480865 194.975357,162.313614 
	C194.974609,171.125671 194.873032,179.937714 194.401123,188.967224 
z"/>
<path fill="#7E5DA6" opacity="1.000000" stroke="none" 
	d="
M368.789612,187.871414 
	C369.706116,192.992081 370.622620,198.112747 371.661621,203.917923 
	C365.995636,207.356674 359.164856,209.200134 352.133209,209.859512 
	C347.784546,210.267288 343.317780,209.419357 338.904266,209.131958 
	C334.225128,208.827286 331.555603,206.034744 330.066742,201.071014 
	C330.109863,192.154007 330.055359,184.070816 330.000854,175.987625 
	C330.350189,165.806900 330.692841,155.625916 331.052124,145.445541 
	C331.208527,141.013397 328.955505,138.143478 325.035736,136.587814 
	C321.460602,135.168930 318.962189,137.183105 316.129150,140.149261 
	C315.314148,150.332901 315.091797,160.077301 314.992828,169.822968 
	C314.978760,171.208557 315.563721,172.600266 315.871460,173.989136 
	C315.274200,183.494980 314.958771,193.033310 313.869507,202.482437 
	C313.616425,204.677841 311.047607,207.875259 308.996552,208.378326 
	C299.296814,210.757416 289.574799,212.440536 279.435944,209.344101 
	C271.440643,206.902298 271.872925,203.524200 273.441620,198.322357 
	C277.292084,185.553925 277.421570,172.575684 276.858917,159.565063 
	C276.419373,149.400955 273.771576,139.223572 274.247955,129.153458 
	C275.014008,112.959557 279.024048,105.810425 295.075378,100.710052 
	C300.528351,98.977348 306.904114,100.063499 312.855103,100.131042 
	C313.379486,100.136993 314.479279,102.269531 314.292023,103.211655 
	C313.371979,107.840408 314.205048,111.658180 318.841400,114.867928 
	C318.379913,109.701958 320.354980,106.284622 325.010895,105.038589 
	C328.894135,103.999352 332.848419,103.012566 336.831818,102.625351 
	C340.283020,102.289879 343.840637,102.636139 347.313232,103.022484 
	C353.937927,103.759514 359.345459,106.970665 361.593414,113.279175 
	C363.974731,119.961906 365.212616,127.052086 366.664124,134.618164 
	C366.565216,137.740829 366.897430,140.208649 366.914673,142.678665 
	C367.006195,155.789078 366.947998,168.901077 367.135010,182.009766 
	C367.162994,183.971115 368.212616,185.917892 368.789612,187.871414 
z"/>
<path fill="#E8D9F3" opacity="1.000000" stroke="none" 
	d="
M368.804932,187.454178 
	C368.212616,185.917892 367.162994,183.971115 367.135010,182.009766 
	C366.947998,168.901077 367.006195,155.789078 366.914673,142.678665 
	C366.897430,140.208649 366.565216,137.740829 366.683228,135.041748 
	C367.330231,136.306503 367.962128,137.800095 367.969238,139.296692 
	C368.036774,153.459610 367.969147,167.623169 368.026581,181.786179 
	C368.033661,183.537476 368.543396,185.286743 368.804932,187.454178 
z"/>
<path fill="#C6BBD7" opacity="1.000000" stroke="none" 
	d="
M315.939545,173.523331 
	C315.563721,172.600266 314.978760,171.208557 314.992828,169.822968 
	C315.091797,160.077301 315.314148,150.332901 315.803345,140.295776 
	C316.075653,151.021500 316.041656,162.039505 315.939545,173.523331 
z"/>
<path fill="#EEE1FB" opacity="1.000000" stroke="none" 
	d="
M329.586548,176.147446 
	C330.055359,184.070816 330.109863,192.154007 330.094727,200.715271 
	C329.689453,198.702118 329.111084,196.215149 329.067200,193.718796 
	C328.965149,187.917358 329.120911,182.111389 329.586548,176.147446 
z"/>
<path fill="#7E5DA6" opacity="1.000000" stroke="none" 
	d="
M255.863739,200.023880 
	C254.731842,206.692459 249.544296,208.495239 244.065247,208.862808 
	C236.222260,209.388962 228.308487,209.385651 220.451279,209.028809 
	C212.290009,208.658173 209.947983,205.344772 211.994385,197.626450 
	C214.755066,187.214111 217.032379,176.709106 215.867188,165.915604 
	C214.830902,156.316467 212.725967,146.833572 211.661179,137.236313 
	C210.950668,130.832245 210.359756,124.187492 211.294815,117.884781 
	C212.514999,109.660110 225.323547,101.182251 234.593521,101.346413 
	C241.577103,101.470070 248.560028,101.697632 255.538620,101.989548 
	C257.261841,102.061638 258.967041,102.563919 261.022797,102.929268 
	C254.768326,111.857307 250.911636,121.098885 252.044144,131.704315 
	C252.931992,140.018646 254.329559,148.277374 255.372559,156.576904 
	C255.761581,159.672440 255.787277,162.813629 255.667709,166.596649 
	C255.367035,176.611084 255.355667,185.962997 255.408661,195.314545 
	C255.417587,196.885132 255.705002,198.454147 255.863739,200.023880 
z"/>
<path fill="#7F5FA6" opacity="1.000000" stroke="none" 
	d="
M243.692657,53.979698 
	C253.566498,62.709446 258.329041,71.130943 250.048492,83.957855 
	C245.726547,90.652771 236.140610,93.838394 227.802078,91.350304 
	C218.765442,88.653923 213.513214,81.827576 212.909225,73.419212 
	C212.158234,62.964397 216.976685,56.172527 225.844193,53.062912 
	C230.981766,51.261288 237.491135,53.371471 243.692657,53.979698 
z"/>
<path fill="#DECDEB" opacity="1.000000" stroke="none" 
	d="
M255.913574,199.580139 
	C255.705002,198.454147 255.417587,196.885132 255.408661,195.314545 
	C255.355667,185.962997 255.367035,176.611084 255.703751,167.041977 
	C256.379028,167.656708 257.012726,168.497528 256.989105,169.319458 
	C256.703461,179.260056 256.320801,189.197861 255.913574,199.580139 
z"/>
<path fill="#7E5DA6" opacity="1.000000" stroke="none" 
	d="
M474.760284,149.891052 
	C476.162170,161.960678 477.564026,174.030304 478.708679,186.901978 
	C478.301697,191.331406 477.914001,194.969193 478.072174,198.583069 
	C478.217377,201.900009 476.908386,204.226242 473.994720,205.200104 
	C470.301971,206.434387 466.453979,207.307770 462.609009,207.960266 
	C455.767761,209.121277 449.603119,207.327438 444.176147,203.005722 
	C444.070374,200.899948 443.964600,198.794174 443.822052,195.956528 
	C435.840759,206.996445 424.702148,209.556244 413.114166,207.539566 
	C407.775269,206.610428 402.451538,201.943649 398.449768,197.714294 
	C389.093842,187.826187 386.344543,175.496552 385.646332,161.944458 
	C384.988403,149.175125 385.110718,136.749283 389.054443,124.623398 
	C392.753754,113.248932 399.345428,104.023666 412.337616,103.064537 
	C419.407715,102.542595 427.216461,100.491211 433.634491,105.959755 
	C436.454376,108.362495 439.068726,111.006477 442.002960,113.753006 
	C442.002960,108.918396 441.995667,103.882492 442.004639,98.846619 
	C442.018524,91.048035 443.256683,83.535889 447.495056,76.805420 
	C450.800018,71.557236 455.090363,69.125267 461.809875,68.618500 
	C468.259857,68.132050 473.541077,69.887535 479.103760,71.991951 
	C481.742737,72.990326 482.148285,74.281174 481.137787,77.236900 
	C479.259644,82.730408 477.964508,88.497063 477.120728,94.251778 
	C476.055237,101.518478 475.683929,108.886971 474.607544,116.878006 
	C474.034088,127.982948 473.856110,138.421341 473.743805,148.860428 
	C473.740143,149.200287 474.406342,149.547348 474.760284,149.891052 
M439.909607,150.984924 
	C438.914917,148.926834 438.021729,146.811768 436.904938,144.822205 
	C434.361938,140.291779 426.295288,137.417130 422.851868,139.723572 
	C416.118622,144.233627 412.344330,157.041458 416.301941,164.060486 
	C417.673523,166.493073 420.824860,169.065994 423.387238,169.320602 
	C425.428864,169.523468 428.073517,166.543945 429.952911,164.516006 
	C431.289032,163.074295 431.797455,160.865494 432.831482,158.666901 
	C433.547943,159.248093 434.077728,159.912140 434.763123,160.184296 
	C436.121521,160.723679 438.081726,161.804947 438.852814,161.280258 
	C439.988861,160.507233 440.718628,158.563812 440.856506,157.049240 
	C441.012054,155.340134 440.320190,153.553864 439.909607,150.984924 
z"/>
<path fill="#7E699B" opacity="1.000000" stroke="none" 
	d="
M444.103210,203.364868 
	C449.603119,207.327438 455.767761,209.121277 462.609009,207.960266 
	C466.453979,207.307770 470.301971,206.434387 473.994720,205.200104 
	C476.908386,204.226242 478.217377,201.900009 478.072174,198.583069 
	C477.914001,194.969193 478.301697,191.331406 478.669006,187.354797 
	C479.240540,192.211288 480.355316,197.529785 479.608124,202.572372 
	C479.265564,204.884247 475.429382,208.106827 472.890228,208.396301 
	C465.356903,209.255127 457.654480,209.240219 450.077454,208.713684 
	C447.956390,208.566284 446.040344,205.468430 444.103210,203.364868 
z"/>
<path fill="#D9CCE4" opacity="1.000000" stroke="none" 
	d="
M474.781616,149.472855 
	C474.406342,149.547348 473.740143,149.200287 473.743805,148.860428 
	C473.856110,138.421341 474.034088,127.982948 474.493225,117.334099 
	C474.509247,126.683372 474.204224,136.242371 473.999725,145.803528 
	C473.976685,146.881027 474.521484,147.970657 474.781616,149.472855 
z"/>
<path fill="#7E5DA6" opacity="1.000000" stroke="none" 
	d="
M918.979919,202.914032 
	C918.954834,201.589127 918.954834,200.634476 918.954834,198.851593 
	C908.958740,209.661606 896.802612,209.742020 884.728943,206.797699 
	C870.939697,203.435013 864.177124,195.708145 863.139221,181.787415 
	C862.455383,172.614426 863.091858,163.466797 866.586060,154.603287 
	C870.591064,144.443848 878.532837,139.483246 888.335754,137.015823 
	C900.906982,133.851639 912.467773,137.227966 923.288940,143.938324 
	C925.241089,131.969177 918.194458,124.769730 907.512146,123.025604 
	C894.514099,120.903381 883.858887,126.699509 873.093628,132.848572 
	C869.782593,126.667114 869.409729,120.129433 870.229065,113.613815 
	C870.961548,107.788795 875.278748,104.609856 880.545227,103.026237 
	C892.545715,99.417709 904.926086,99.356972 917.236816,100.293648 
	C923.187378,100.746399 929.220459,102.154114 934.865234,104.131348 
	C944.607666,107.543854 950.160339,115.235077 951.829956,125.095474 
	C953.922058,137.450684 951.408936,149.751419 950.241455,162.093506 
	C949.061646,174.565643 945.399597,187.136246 949.866699,199.746582 
	C950.610168,201.845352 950.732056,204.234802 950.730469,206.489624 
	C950.729858,207.303055 949.540771,208.805756 948.864136,208.823044 
	C941.180603,209.019318 933.450439,209.441711 925.827454,208.753708 
	C923.408508,208.535400 921.271240,205.195618 918.979919,202.914032 
M906.412964,166.934311 
	C904.101624,164.723999 901.917236,160.909943 899.446411,160.714325 
	C896.441101,160.476364 892.330933,161.210587 890.775757,166.048248 
	C888.902527,171.875488 890.624939,176.468842 894.134094,180.412598 
	C897.445923,184.134537 902.475647,184.194565 906.721191,182.528580 
	C911.722168,180.566116 914.483093,176.140961 914.839233,170.702087 
	C914.942688,169.121445 913.823975,167.460800 913.265564,165.836823 
	C911.879150,166.356079 910.513489,166.945679 909.097229,167.363754 
	C908.429321,167.560883 907.664246,167.428925 906.412964,166.934311 
z"/>
<path fill="#463873" opacity="1.000000" stroke="none" 
	d="
M907.781128,133.469879 
	C899.143127,133.250076 890.832520,133.250076 881.882263,133.250076 
	C888.427063,126.712349 896.350342,125.682617 904.226685,126.468758 
	C913.491028,127.393440 916.913574,130.131439 918.760925,135.928375 
	C914.989563,135.135788 911.549072,134.412720 907.781128,133.469879 
z"/>
<path fill="#7E5DA6" opacity="1.000000" stroke="none" 
	d="
M807.070068,195.809708 
	C803.584473,203.371490 797.006409,206.091888 789.962402,206.855087 
	C784.162292,207.483505 778.148438,206.549713 772.288696,205.826752 
	C771.263550,205.700287 769.680969,203.112900 769.802246,201.795197 
	C770.659058,192.485947 772.688293,183.221848 772.809875,173.923309 
	C772.968201,161.814102 771.780212,149.681915 771.035217,137.568008 
	C770.468933,128.360580 769.503235,119.175049 769.067932,109.963112 
	C768.752991,103.298904 770.517151,100.742760 777.197205,100.131386 
	C785.155884,99.402985 793.356873,98.010529 801.156799,101.141159 
	C802.928955,101.852440 804.892212,103.513924 805.578613,105.217186 
	C807.168640,109.162819 809.296997,108.711929 811.850647,106.661240 
	C822.349426,98.230362 841.687134,98.976059 850.099609,109.111771 
	C852.801880,112.367699 854.042114,117.998169 853.672241,122.348488 
	C853.211853,127.762505 850.390564,132.975754 848.482971,138.587051 
	C836.449219,130.611984 825.191223,131.618988 813.581787,136.126892 
	C809.224548,137.818832 805.511841,146.357666 805.969360,150.518982 
	C806.885620,158.853409 807.332458,167.239044 808.001465,175.601273 
	C808.289917,179.207108 808.985657,182.817978 808.872070,186.406784 
	C808.776306,189.431213 807.777588,192.427063 807.070068,195.809708 
z"/>
<path fill="#000000" opacity="1.000000" stroke="none" 
	d="
M538.936707,132.317566 
	C538.927307,136.775009 536.811218,139.946198 533.140381,140.684113 
	C531.158447,141.082520 527.452820,139.353195 526.651733,137.607697 
	C525.559143,135.226822 525.502319,131.351807 526.768066,129.118790 
	C529.430908,124.421089 535.764893,126.077682 538.936707,132.317566 
z"/>
<path fill="#000000" opacity="1.000000" stroke="none" 
	d="
M695.334778,135.191528 
	C693.358337,138.647263 691.000916,141.722443 687.187866,140.716583 
	C685.141174,140.176682 682.942627,137.470352 682.210144,135.275269 
	C680.792358,131.026230 683.604736,127.329239 687.812866,126.779015 
	C692.691528,126.141129 695.448364,129.025528 695.334778,135.191528 
z"/>
<path fill="#000000" opacity="1.000000" stroke="none" 
	d="
M439.953247,151.393036 
	C440.320190,153.553864 441.012054,155.340134 440.856506,157.049240 
	C440.718628,158.563812 439.988861,160.507233 438.852814,161.280258 
	C438.081726,161.804947 436.121521,160.723679 434.763123,160.184296 
	C434.077728,159.912140 433.547943,159.248093 432.831482,158.666901 
	C431.797455,160.865494 431.289032,163.074295 429.952911,164.516006 
	C428.073517,166.543945 425.428864,169.523468 423.387238,169.320602 
	C420.824860,169.065994 417.673523,166.493073 416.301941,164.060486 
	C412.344330,157.041458 416.118622,144.233627 422.851868,139.723572 
	C426.295288,137.417130 434.361938,140.291779 436.904938,144.822205 
	C438.021729,146.811768 438.914917,148.926834 439.953247,151.393036 
M429.001160,155.228287 
	C432.675629,148.572464 433.893188,156.993530 437.006561,156.352982 
	C437.628021,151.269867 434.269043,148.019974 431.217285,144.771332 
	C427.945374,141.288406 422.906586,142.092422 420.993134,146.463379 
	C419.708374,149.398163 418.637634,152.557358 418.229187,155.714233 
	C417.625793,160.377701 420.366669,164.888962 423.274414,165.082153 
	C427.159454,165.340271 429.096283,162.211197 429.001160,155.228287 
z"/>
<path fill="#000000" opacity="1.000000" stroke="none" 
	d="
M906.678101,167.190201 
	C907.664246,167.428925 908.429321,167.560883 909.097229,167.363754 
	C910.513489,166.945679 911.879150,166.356079 913.265564,165.836823 
	C913.823975,167.460800 914.942688,169.121445 914.839233,170.702087 
	C914.483093,176.140961 911.722168,180.566116 906.721191,182.528580 
	C902.475647,184.194565 897.445923,184.134537 894.134094,180.412598 
	C890.624939,176.468842 888.902527,171.875488 890.775757,166.048248 
	C892.330933,161.210587 896.441101,160.476364 899.446411,160.714325 
	C901.917236,160.909943 904.101624,164.723999 906.678101,167.190201 
M903.921265,179.594330 
	C907.936279,178.113464 911.206116,175.973816 912.253235,170.264771 
	C909.007996,171.553802 906.781006,172.438370 904.219421,173.455856 
	C904.116821,171.737564 904.561523,169.882889 903.830933,168.920059 
	C902.390930,167.022339 900.299133,165.619171 898.476990,164.011444 
	C896.989563,165.914841 894.526184,167.665253 894.199280,169.750565 
	C893.254089,175.780136 896.810547,179.389648 903.921265,179.594330 
z"/>
<path fill="#443374" opacity="1.000000" stroke="none" 
	d="
M428.958374,155.598419 
	C429.096283,162.211197 427.159454,165.340271 423.274414,165.082153 
	C420.366669,164.888962 417.625793,160.377701 418.229187,155.714233 
	C418.637634,152.557358 419.708374,149.398163 420.993134,146.463379 
	C422.906586,142.092422 427.945374,141.288406 431.217285,144.771332 
	C434.269043,148.019974 437.628021,151.269867 437.006561,156.352982 
	C433.893188,156.993530 432.675629,148.572464 428.958374,155.598419 
z"/>
<path fill="#473775" opacity="1.000000" stroke="none" 
	d="
M903.557617,179.729156 
	C896.810547,179.389648 893.254089,175.780136 894.199280,169.750565 
	C894.526184,167.665253 896.989563,165.914841 898.476990,164.011459 
	C900.299133,165.619171 902.390930,167.022339 903.830933,168.920059 
	C904.561523,169.882889 904.116821,171.737564 904.219421,173.455856 
	C906.781006,172.438370 909.007996,171.553802 912.253235,170.264771 
	C911.206116,175.973816 907.936279,178.113464 903.557617,179.729156 
z"/>
</svg>