<?xml version="1.0" standalone="no"?>
<svg version="1.0" xmlns="http://www.w3.org/2000/svg"
 width="278.000000pt" height="136.000000pt" viewBox="0 0 278.000000 136.000000"
 preserveAspectRatio="xMidYMid meet">

<g transform="translate(0.000000,136.000000) scale(0.100000,-0.100000)"
fill="#FFFFFF" stroke="none">
<path d="M915 1204 c-176 -29 -359 -58 -407 -64 -178 -21 -314 -100 -409 -237
-147 -212 -113 -516 79 -695 292 -273 761 -146 886 240 14 42 46 122 71 177
31 66 40 94 27 82 -10 -9 -21 -15 -24 -12 -2 3 -5 -1 -5 -8 -1 -6 -10 -30 -22
-52 -20 -37 -21 -37 -21 -12 0 41 -32 180 -45 197 -6 8 -24 37 -40 65 -16 27
-49 71 -73 98 -25 26 -43 49 -41 51 2 2 51 18 109 36 204 61 197 58 203 90 4
15 20 44 38 64 26 30 28 36 13 35 -11 -1 -163 -25 -339 -55z m-460 -320 c31
-34 32 -75 2 -110 -50 -57 -147 -20 -147 57 0 72 96 106 145 53z"/>
<path d="M1519 1219 c17 -23 31 -50 31 -59 0 -27 16 -35 170 -80 80 -23 147
-44 149 -47 3 -2 -13 -22 -36 -46 -47 -49 -115 -157 -131 -207 -6 -19 -16 -66
-23 -103 l-11 -69 -22 39 c-25 44 -57 83 -68 83 -4 0 18 -53 49 -117 30 -65
63 -145 74 -179 56 -179 233 -332 423 -365 229 -39 471 83 573 292 41 83 55
145 54 249 0 105 -25 193 -79 276 -100 152 -234 233 -421 254 -77 9 -654 100
-734 116 l-29 6 31 -43z m592 -322 c42 -32 47 -97 11 -130 -53 -48 -142 -11
-142 59 0 65 81 109 131 71z"/>
<path d="M1321 1174 c-20 -17 -31 -35 -31 -52 l0 -27 85 0 c81 0 85 1 85 22 0
35 -11 53 -41 68 -40 21 -63 19 -98 -11z"/>
</g>
</svg>
