<?xml version="1.0" encoding="UTF-8"?>
<!DOCTYPE svg PUBLIC "-//W3C//DTD SVG 1.1//EN" "http://www.w3.org/Graphics/SVG/1.1/DTD/svg11.dtd">
<svg xmlns="http://www.w3.org/2000/svg" version="1.1" width="200px" height="200px" style="shape-rendering:geometricPrecision; text-rendering:geometricPrecision; image-rendering:optimizeQuality; fill-rule:evenodd; clip-rule:evenodd" xmlns:xlink="http://www.w3.org/1999/xlink">
<g><path style="opacity:0.977" fill="#7d59a5" d="M 64.5,11.5 C 103.835,11.3333 143.168,11.5 182.5,12C 189.428,14.5936 193.928,19.4269 196,26.5C 196.667,51.1667 196.667,75.8333 196,100.5C 193.333,108.5 188,113.833 180,116.5C 179.667,123.833 179.333,131.167 179,138.5C 177.607,141.366 175.274,142.699 172,142.5C 170.033,142.458 168.199,141.958 166.5,141C 158.5,133 150.5,125 142.5,117C 116.5,116.667 90.5,116.333 64.5,116C 56.3592,112.863 51.5258,107.03 50,98.5C 49.3333,75.5 49.3333,52.5 50,29.5C 51.7698,20.9094 56.6031,14.9094 64.5,11.5 Z M 116.5,31.5 C 126.74,29.8439 135.24,32.8439 142,40.5C 145.333,46.8333 145.333,53.1667 142,59.5C 138.019,63.8115 133.686,67.8115 129,71.5C 128.667,73.1667 128.333,74.8333 128,76.5C 123.921,77.6295 119.755,77.7961 115.5,77C 114.203,74.4554 114.369,71.9554 116,69.5C 120.033,65.1321 124.366,61.1321 129,57.5C 130.923,53.1384 130.923,48.8051 129,44.5C 125.581,41.1519 121.748,40.6519 117.5,43C 116.13,44.4413 115.13,46.108 114.5,48C 110.179,48.499 105.846,48.6657 101.5,48.5C 102.621,39.381 107.621,33.7143 116.5,31.5 Z M 117.5,84.5 C 120.881,84.4595 124.214,84.7929 127.5,85.5C 129.146,88.8946 128.813,92.0613 126.5,95C 122.833,95.6667 119.167,95.6667 115.5,95C 114.39,92.2628 114.223,89.4294 115,86.5C 115.995,85.9341 116.828,85.2674 117.5,84.5 Z"/></g>
<g><path style="opacity:0.941" fill="#7d59a5" d="M 18.5,56.5 C 24.5,56.5 30.5,56.5 36.5,56.5C 36.5,61.5 36.5,66.5 36.5,71.5C 31.0873,71.2288 25.7539,71.7288 20.5,73C 18.9963,74.4907 18.1629,76.324 18,78.5C 17.3333,99.1667 17.3333,119.833 18,140.5C 18.3459,142.848 19.5125,144.681 21.5,146C 25.8206,146.499 30.1539,146.666 34.5,146.5C 34.3341,151.511 34.5007,156.511 35,161.5C 39.8333,156.667 44.6667,151.833 49.5,147C 76.5,146.667 103.5,146.333 130.5,146C 132.487,144.681 133.654,142.848 134,140.5C 134.499,136.848 134.665,133.182 134.5,129.5C 140.535,132.694 145.535,137.194 149.5,143C 147.761,151.737 142.761,157.737 134.5,161C 108.494,161.167 82.4936,161.667 56.5,162.5C 49.0146,170.486 41.3479,178.319 33.5,186C 28.0815,189.684 23.5815,188.85 20,183.5C 19.5003,176.174 19.3337,168.841 19.5,161.5C 10.5676,159.735 5.06756,154.401 3,145.5C 2.83333,133.5 2.66667,121.5 2.5,109.5C 2.37042,96.1139 2.87042,82.7806 4,69.5C 7.16246,63.1641 11.9958,58.8308 18.5,56.5 Z"/></g>
</svg>
