<svg width="20" height="21" viewBox="0 0 20 21" fill="none" xmlns="http://www.w3.org/2000/svg">
<path d="M3 1.5V15.5V1.5ZM3 15.5C2.60444 15.5 2.21776 15.6173 1.88886 15.8371C1.55996 16.0568 1.30362 16.3692 1.15224 16.7346C1.00087 17.1001 0.96126 17.5022 1.03843 17.8902C1.1156 18.2781 1.30608 18.6345 1.58579 18.9142C1.86549 19.1939 2.22186 19.3844 2.60982 19.4616C2.99778 19.5387 3.39992 19.4991 3.76537 19.3478C4.13082 19.1964 4.44318 18.94 4.66294 18.6111C4.8827 18.2822 5 17.8956 5 17.5C5 16.9696 4.78929 16.4609 4.41421 16.0858C4.03914 15.7107 3.53043 15.5 3 15.5ZM10 5.5V19.5V5.5ZM10 1.5C9.60444 1.5 9.21776 1.6173 8.88886 1.83706C8.55996 2.05682 8.30362 2.36918 8.15224 2.73463C8.00087 3.10009 7.96126 3.50222 8.03843 3.89018C8.1156 4.27814 8.30608 4.63451 8.58579 4.91421C8.86549 5.19392 9.22186 5.3844 9.60982 5.46157C9.99778 5.53874 10.3999 5.49913 10.7654 5.34776C11.1308 5.19638 11.4432 4.94004 11.6629 4.61114C11.8827 4.28224 12 3.89556 12 3.5C12 2.96957 11.7893 2.46086 11.4142 2.08579C11.0391 1.71071 10.5304 1.5 10 1.5ZM17 12.5V19.5V12.5ZM17 8.5V1.5V8.5ZM17 8.5C16.6044 8.5 16.2178 8.6173 15.8889 8.83706C15.56 9.05682 15.3036 9.36918 15.1522 9.73463C15.0009 10.1001 14.9613 10.5022 15.0384 10.8902C15.1156 11.2781 15.3061 11.6345 15.5858 11.9142C15.8655 12.1939 16.2219 12.3844 16.6098 12.4616C16.9978 12.5387 17.3999 12.4991 17.7654 12.3478C18.1308 12.1964 18.4432 11.94 18.6629 11.6111C18.8827 11.2822 19 10.8956 19 10.5C19 9.96957 18.7893 9.46086 18.4142 9.08579C18.0391 8.71071 17.5304 8.5 17 8.5Z" stroke="#FAFAFF" stroke-width="2" stroke-linecap="round" stroke-linejoin="round"/>
</svg>
