<svg width="24" height="25" viewBox="0 0 24 25" fill="none" xmlns="http://www.w3.org/2000/svg">
<g clip-path="url(#clip0_975_3070)">
<path d="M0.746094 16.6723C2.44161 21.2419 6.84012 24.4985 11.9997 24.4985C17.1593 24.4985 21.5578 21.2419 23.2533 16.6723L11.9997 15.6289L0.746094 16.6723Z" fill="#FFDA44"/>
<path d="M11.9997 0.5C6.84012 0.5 2.44161 3.7565 0.746094 8.32611L11.9997 9.36955L23.2533 8.32606C21.5578 3.7565 17.1593 0.5 11.9997 0.5Z" fill="black"/>
<path d="M0.746391 8.32422C0.264047 9.6242 0 11.0303 0 12.4981C0 13.966 0.264047 15.372 0.746391 16.672H23.2537C23.736 15.372 24 13.966 24 12.4981C24 11.0303 23.736 9.6242 23.2536 8.32422H0.746391Z" fill="#D80027"/>
</g>
<defs>
<clipPath id="clip0_975_3070">
<rect width="24" height="24" fill="white" transform="translate(0 0.5)"/>
</clipPath>
</defs>
</svg>
