<svg width="21" height="21" viewBox="0 0 21 21" fill="none" xmlns="http://www.w3.org/2000/svg">
<path d="M20.7099 19.2914L16.9999 15.6114C18.44 13.8158 19.1374 11.5367 18.9487 9.24267C18.76 6.94867 17.6996 4.81415 15.9854 3.27801C14.2713 1.74188 12.0337 0.920879 9.73283 0.98384C7.43194 1.0468 5.24263 1.98893 3.61505 3.61651C1.98747 5.24409 1.04534 7.43341 0.982375 9.73429C0.919414 12.0352 1.74041 14.2727 3.27655 15.9869C4.81269 17.701 6.94721 18.7615 9.2412 18.9502C11.5352 19.1389 13.8143 18.4415 15.6099 17.0014L19.2899 20.6814C19.3829 20.7751 19.4935 20.8495 19.6153 20.9003C19.7372 20.951 19.8679 20.9772 19.9999 20.9772C20.1319 20.9772 20.2626 20.951 20.3845 20.9003C20.5063 20.8495 20.6169 20.7751 20.7099 20.6814C20.8901 20.4949 20.9909 20.2457 20.9909 19.9864C20.9909 19.727 20.8901 19.4778 20.7099 19.2914ZM9.9999 17.0014C8.61544 17.0014 7.26206 16.5908 6.11091 15.8217C4.95977 15.0525 4.06256 13.9592 3.53275 12.6802C3.00293 11.4011 2.86431 9.9936 3.13441 8.63574C3.4045 7.27787 4.07119 6.03059 5.05016 5.05162C6.02912 4.07265 7.27641 3.40597 8.63427 3.13587C9.99214 2.86578 11.3996 3.0044 12.6787 3.53421C13.9578 4.06403 15.051 4.96123 15.8202 6.11238C16.5894 7.26352 16.9999 8.6169 16.9999 10.0014C16.9999 11.8579 16.2624 13.6384 14.9497 14.9511C13.6369 16.2639 11.8564 17.0014 9.9999 17.0014Z" fill="#CCCFFF"/>
</svg>
