<svg width="24" height="25" viewBox="0 0 24 25" fill="none" xmlns="http://www.w3.org/2000/svg">
<g clip-path="url(#clip0_975_3076)">
<path d="M12 24.5C18.6274 24.5 24 19.1274 24 12.5C24 5.87258 18.6274 0.5 12 0.5C5.37258 0.5 0 5.87258 0 12.5C0 19.1274 5.37258 24.5 12 24.5Z" fill="#F0F0F0"/>
<path d="M11.4775 12.5015H23.9993C23.9993 11.4185 23.8549 10.3692 23.5859 9.37109H11.4775V12.5015Z" fill="#D80027"/>
<path d="M11.4775 6.23983H22.238C21.5034 5.04114 20.5642 3.98162 19.4691 3.10938H11.4775V6.23983Z" fill="#D80027"/>
<path d="M12.0001 24.4993C14.8243 24.4993 17.4201 23.5232 19.4699 21.8906H4.53027C6.58012 23.5232 9.17591 24.4993 12.0001 24.4993Z" fill="#D80027"/>
<path d="M1.76098 18.7633H22.2384C22.8281 17.801 23.2855 16.7491 23.5863 15.6328H0.413086C0.713883 16.7491 1.17124 17.801 1.76098 18.7633Z" fill="#D80027"/>
<path d="M5.55863 2.37397H6.65217L5.63498 3.11295L6.02353 4.30869L5.00639 3.5697L3.98925 4.30869L4.32487 3.2757C3.42928 4.02172 2.64431 4.89575 1.99744 5.86963H2.34783L1.70034 6.34002C1.59947 6.5083 1.50272 6.67925 1.41 6.85273L1.71919 7.80434L1.14234 7.38523C0.998953 7.68903 0.867797 7.99967 0.749906 8.31678L1.09055 9.36528H2.34783L1.33064 10.1043L1.71919 11.3L0.702047 10.561L0.0927656 11.0037C0.0317812 11.4939 0 11.9932 0 12.5H12C12 5.87262 12 5.09131 12 0.5C9.62944 0.5 7.41961 1.18766 5.55863 2.37397ZM6.02353 11.3L5.00639 10.561L3.98925 11.3L4.3778 10.1043L3.36061 9.36528H4.61789L5.00639 8.16955L5.39489 9.36528H6.65217L5.63498 10.1043L6.02353 11.3ZM5.63498 6.60861L6.02353 7.80434L5.00639 7.06536L3.98925 7.80434L4.3778 6.60861L3.36061 5.86963H4.61789L5.00639 4.67389L5.39489 5.86963H6.65217L5.63498 6.60861ZM10.3279 11.3L9.31073 10.561L8.29359 11.3L8.68214 10.1043L7.66495 9.36528H8.92223L9.31073 8.16955L9.69923 9.36528H10.9565L9.93933 10.1043L10.3279 11.3ZM9.93933 6.60861L10.3279 7.80434L9.31073 7.06536L8.29359 7.80434L8.68214 6.60861L7.66495 5.86963H8.92223L9.31073 4.67389L9.69923 5.86963H10.9565L9.93933 6.60861ZM9.93933 3.11295L10.3279 4.30869L9.31073 3.5697L8.29359 4.30869L8.68214 3.11295L7.66495 2.37397H8.92223L9.31073 1.17823L9.69923 2.37397H10.9565L9.93933 3.11295Z" fill="#0052B4"/>
</g>
<defs>
<clipPath id="clip0_975_3076">
<rect width="24" height="24" fill="white" transform="translate(0 0.5)"/>
</clipPath>
</defs>
</svg>
